<?xml version="1.0" encoding="UTF-8" standalone="no"?> <svg xmlns="http://www.w3.org/2000/svg" xmlns:xlink="http://www.w3.org/1999/xlink" xmlns:serif="http://www.serif.com/" width="100%" height="100%" viewBox="0 0 5758 1891" version="1.1" xml:space="preserve" style="fill-rule:evenodd;clip-rule:evenodd;stroke-linejoin:round;stroke-miterlimit:2;"><path d="M3255.47,887.003C3253.73,895.385 3251.35,900.976 3248.45,903.701C3245.52,906.482 3241.71,907.878 3237.05,907.878C3232.96,907.878 3225.97,905.628 3216,901.204C3194.4,891.721 3174.01,887.003 3154.78,887.003C3123.98,887.003 3098.56,896.391 3078.59,915.206C3058.66,933.983 3048.66,956.424 3048.66,982.386C3048.66,997.366 3052.09,1011.07 3058.83,1023.58C3065.62,1036.06 3075.55,1047.46 3088.66,1057.77C3101.74,1068.1 3123.8,1081.93 3154.78,1099.35C3185.79,1116.67 3204.74,1128.04 3211.7,1133.37C3222.02,1141.22 3229.61,1149.68 3234.51,1158.74C3239.36,1167.86 3241.92,1176.86 3241.92,1185.72C3241.92,1201.79 3235.44,1215.69 3222.51,1227.44C3209.57,1239.16 3192.01,1245.08 3169.74,1245.08C3150.48,1245.08 3132.86,1240.78 3116.67,1232.26C3100.59,1223.66 3088.59,1212.96 3080.76,1200.07C3072.89,1187.1 3066.7,1167.68 3062.05,1141.65L3052.12,1141.65L3052.12,1265.93L3062.05,1265.93C3063.28,1257.53 3065.24,1252.02 3067.76,1249.34C3070.38,1246.66 3073.87,1245.37 3078.35,1245.37C3082.96,1245.37 3093.98,1248.15 3111.32,1253.74C3128.7,1259.38 3140.13,1262.65 3145.69,1263.51C3154.95,1265.11 3164.81,1265.93 3175.37,1265.93C3208.84,1265.93 3236.18,1255.99 3257.51,1236.13C3278.76,1216.28 3289.43,1192.61 3289.43,1165.18C3289.43,1150.74 3286.11,1136.95 3279.4,1123.78C3272.72,1110.57 3263.17,1099.11 3250.82,1089.43C3238.45,1079.68 3215.34,1065.78 3181.49,1047.63C3139.99,1025.34 3113.7,1007.51 3102.65,994.167C3094.99,985.082 3091.14,975.01 3091.14,963.942C3091.14,949.541 3097.23,936.66 3109.36,925.363C3121.47,914.038 3136.78,908.371 3155.27,908.371C3171.71,908.371 3187.51,912.586 3202.86,920.959C3218.17,929.331 3229.96,940.609 3238.24,954.886C3246.6,969.153 3252.29,988.262 3255.47,1012.36L3265.41,1012.36L3265.41,887.003L3255.47,887.003ZM2825.23,1340.6L2825.23,1008.61L2801.9,1008.61L2801.9,1340.6L2825.23,1340.6ZM2447.21,1001.66C2479.53,968.698 2497.56,950.424 2501.48,946.864C2515.05,934.4 2526.41,925.363 2535.71,919.734C2544.94,914.143 2552.79,910.346 2559.21,908.371C2565.61,906.454 2572.74,905.381 2580.59,905.21L2580.59,895.29L2447.47,895.29L2447.47,905.21L2455.77,905.21C2464.72,905.21 2471.06,906.748 2474.72,909.871C2478.55,913.004 2480.38,916.601 2480.38,920.693C2480.38,926.028 2477.99,932.274 2473.16,939.365C2462.12,955.617 2430.14,987.959 2377.23,1036.37C2356.41,1055.64 2344.22,1066.97 2340.63,1070.3L2340.63,959.414C2340.63,941.624 2341.71,929.853 2343.85,924.177C2345.97,918.472 2349.8,914.171 2355.31,911.324C2363.15,907.223 2371.25,905.21 2379.66,905.21L2391.94,905.21L2391.94,895.29L2237.46,895.29L2237.46,905.21L2250.32,905.21C2258.86,905.21 2267.04,907.299 2274.89,911.589C2280.4,914.807 2284.05,918.548 2285.84,922.81C2288.14,928.876 2289.33,941.093 2289.33,959.414L2289.33,1193.55C2289.33,1215.25 2287.17,1228.94 2282.9,1234.67C2276.12,1243.4 2265.29,1247.77 2250.32,1247.77L2237.46,1247.77L2237.46,1257.61L2391.94,1257.61L2391.94,1247.77L2379.66,1247.77C2371.06,1247.77 2362.97,1245.58 2355.31,1241.32C2349.63,1238.15 2345.84,1234.32 2344.12,1229.83C2341.78,1223.98 2340.63,1211.86 2340.63,1193.55L2340.63,1076.74L2465.68,1200.46C2475.1,1209.71 2480.7,1216.05 2482.38,1219.45C2484.08,1222.82 2484.93,1226.66 2484.93,1230.94C2484.93,1235.22 2482.69,1239.06 2478.09,1242.53C2473.57,1245.99 2466.17,1247.77 2455.77,1247.77L2455.77,1257.61L2628.14,1257.61L2628.14,1247.77C2612.65,1246.66 2597.14,1242.19 2581.64,1234.27C2566.17,1226.34 2547.48,1211.43 2525.54,1189.48L2391.94,1056.65L2447.21,1001.66ZM2039.18,1340.6L2039.18,1008.61L2015.79,1008.61L2015.79,1340.6L2039.18,1340.6ZM1792.64,887.003C1790.68,895.575 1787.33,902.239 1782.73,907.061C1779.2,910.45 1774.97,912.13 1770.18,912.13C1766.99,912.13 1761.61,910.194 1754.18,906.254C1728.7,893.439 1702.82,887.003 1676.66,887.003C1642.96,887.003 1611.95,895.328 1583.52,911.998C1555.09,928.686 1532.83,952.142 1516.58,982.386C1500.41,1012.72 1492.29,1045.89 1492.29,1082.07C1492.29,1126.98 1504.58,1165.97 1529.11,1199.13C1562.12,1243.66 1608.6,1265.93 1668.64,1265.93C1701.96,1265.93 1730.72,1258.45 1754.96,1243.49C1779.2,1228.53 1800.37,1204.9 1818.57,1172.67L1810.25,1167.33C1788.71,1197.23 1768.92,1217.24 1750.97,1227.32C1732.96,1237.35 1712.21,1242.38 1688.69,1242.38C1661.61,1242.38 1637.5,1236 1616.4,1223.19C1595.32,1210.36 1579.46,1191.91 1568.93,1167.86C1558.45,1143.82 1553.22,1115.41 1553.22,1082.61C1553.22,1042.87 1558.77,1009.66 1569.92,982.927C1581,956.253 1596.33,936.774 1615.7,924.528C1635.15,912.377 1656.89,906.254 1680.95,906.254C1709.61,906.254 1734.21,914.371 1754.73,930.556C1775.19,946.798 1790.96,973.33 1801.96,1010.18L1810.25,1010.18L1801.96,887.003L1792.64,887.003ZM1283.29,1340.6L1283.29,1008.61L1259.91,1008.61L1259.91,1340.6L1283.29,1340.6ZM834.973,1116.55L898.053,970.131L959.518,1116.55L834.973,1116.55ZM988.908,1188.42C996.046,1205.39 999.606,1217.7 999.606,1225.55C999.606,1231.48 997.043,1236.45 991.983,1240.54C986.857,1244.64 977.137,1247.05 962.698,1247.77L962.698,1257.61L1105.71,1257.61L1105.71,1247.77C1090.92,1246.84 1079.37,1242.83 1071.11,1235.6C1062.77,1228.38 1053.59,1212.66 1043.41,1188.42L917.294,887.003L907.897,887.003L780.466,1185.22C769.454,1211.43 759.364,1228.76 750.288,1237.31C745.827,1241.64 736.021,1245.08 720.918,1247.77L720.918,1257.61L834.973,1257.61L834.973,1247.77C817.535,1246.52 806.163,1243.78 800.904,1239.6C795.692,1235.42 793.044,1230.57 793.044,1225.03C793.044,1218.06 796.053,1207.59 802.119,1193.55L826.705,1136.32L966.97,1136.32L988.908,1188.42ZM557.595,1340.6L557.595,1008.61L534.224,1008.61L534.224,1340.6L557.595,1340.6ZM103.67,1082.9C108.512,1081.98 114.843,1081.35 122.656,1081.01C130.468,1080.62 139.923,1080.5 150.973,1080.5C176.461,1080.5 197.829,1084.24 215.134,1091.67C232.411,1099.17 244.856,1109.41 252.526,1122.42C260.187,1135.45 264.013,1148.98 264.013,1163.05C264.013,1184.41 255.554,1202.34 238.648,1216.88C221.694,1231.4 197.108,1238.68 164.87,1238.68C144.746,1238.68 124.336,1236.25 103.67,1231.48L103.67,1082.9ZM103.67,919.07C117.947,915.159 133.943,913.232 151.761,913.232C184.928,913.232 210.103,920.693 227.427,935.625C244.676,950.605 253.314,968.698 253.314,989.886C253.314,1003.57 249.84,1016.28 242.91,1027.81C235.971,1039.4 225.918,1048.04 212.866,1053.62C199.747,1059.2 180.182,1062.02 154.172,1062.02C144.034,1062.02 134.75,1061.72 126.254,1061.11C117.796,1060.48 110.277,1059.57 103.67,1058.28L103.67,919.07ZM292.586,1040.8C303.645,1026.5 309.151,1010.18 309.151,991.983C309.151,970.834 302.107,952.095 288.058,935.796C274.018,919.468 253.58,908.087 226.829,901.707C209.22,897.445 185.802,895.29 156.593,895.29L0,895.29L0,905.21L13.651,905.21C27.358,905.21 37.696,909.121 44.635,916.972C49.79,922.81 52.372,937.011 52.372,959.414L52.372,1193.55C52.372,1213.83 50.331,1227.1 46.22,1233.34C39.651,1242.96 28.773,1247.77 13.651,1247.77L0,1247.77L0,1257.61L171.031,1257.61C211.812,1257.61 242.132,1253.83 261.991,1246.3C281.849,1238.72 297.474,1226.71 308.894,1210.23C320.314,1193.73 326.01,1176.49 326.01,1158.49C326.01,1134.78 317.333,1114.74 300.085,1098.4C287.621,1086.6 268.825,1078.05 243.717,1072.74C265.256,1065.78 281.555,1055.17 292.586,1040.8Z" style="fill:#eb5c05;fill-rule:nonzero;"></path><path d="M3597.22,328.706L3563.45,268.626C3578.1,220.004 3599.81,185.688 3628.35,165.649C3649.98,149.473 3686.31,136.126 3737.4,125.637L3775.06,182.83C3743.87,283.9 3684.57,332.522 3597.22,328.706ZM3610.83,727.658C3543.8,713.333 3492.95,706.223 3458.34,706.223C3490.37,788.183 3506.35,876.827 3506.35,972.172C3506.35,1062.77 3491.62,1165.22 3462.23,1279.64C3444.88,1345.41 3413.39,1446.91 3367.51,1584.18C3322.5,1716.72 3291.36,1818.77 3274.04,1890.23C3345.83,1747.24 3431.94,1551.77 3532.25,1303.91C3646.56,1021.77 3723.16,836.815 3762.05,749.121C3728.31,749.121 3677.89,741.916 3610.83,727.658ZM3712.54,0L3526.81,31.231C3526.81,40.752 3492.54,54.83 3477.82,99.152C3463.1,143.483 3455.75,179.024 3455.75,205.67C3455.75,254.358 3467.05,300.104 3489.46,343.011C3523.21,407.837 3576.45,440.208 3649.14,440.208C3693.27,440.208 3746.45,404.942 3808.79,334.401C3863.28,272.452 3876.32,215.058 3896.24,160.722L3712.54,0Z" style="fill:#555655;fill-rule:nonzero;"></path><path d="M4472.34,634.04C4472.34,650.035 4449.23,662.044 4403.03,670.065C4372.75,675.381 4342.96,678.077 4313.63,678.077C4364.29,775.852 4410.1,892.338 4451.01,1027.5C4467.03,1079.99 4499.43,1200.9 4548.38,1390.28C4548.38,1141.25 4523.04,889.243 4472.34,634.04Z" style="fill:#555655;fill-rule:nonzero;"></path><path d="M5587.84,328.601C5032.1,328.601 4513.72,401.971 4032.66,548.634L3832.61,666.05L3851.24,718.06C4114.56,589.984 4427.91,491.763 4791.55,423.292C5117.94,361.959 5439.8,331.24 5757.23,331.24C5701.23,329.475 5644.79,328.601 5587.84,328.601Z" style="fill:#555655;fill-rule:nonzero;"></path><rect x="24.786" y="1558.3" width="25.175" height="190.254" style="fill:#555655;"></rect><path d="M158.178,1748.56L158.178,1580.75L95.488,1580.75L95.488,1558.3L246.299,1558.3L246.299,1580.75L183.353,1580.75L183.353,1748.56L158.178,1748.56Z" style="fill:#555655;fill-rule:nonzero;"></path><rect x="260.804" y="1667.96" width="71.775" height="23.495" style="fill:#555655;"></rect><path d="M368.233,1687.43L391.984,1685.35C393.114,1694.88 395.725,1702.68 399.844,1708.78C403.945,1714.88 410.334,1719.81 418.982,1723.58C427.63,1727.34 437.369,1729.22 448.181,1729.22C457.788,1729.22 466.265,1727.8 473.622,1724.94C480.969,1722.08 486.447,1718.17 490.035,1713.2C493.623,1708.22 495.427,1702.79 495.427,1696.91C495.427,1690.93 493.69,1685.72 490.234,1681.27C486.77,1676.81 481.064,1673.07 473.1,1670.04C467.993,1668.06 456.706,1664.96 439.23,1660.76C421.754,1656.57 409.508,1652.61 402.502,1648.88C393.418,1644.14 386.64,1638.22 382.188,1631.17C377.726,1624.12 375.505,1616.23 375.505,1607.48C375.505,1597.88 378.229,1588.91 383.678,1580.55C389.137,1572.21 397.091,1565.87 407.562,1561.54C418.032,1557.22 429.671,1555.06 442.476,1555.06C456.573,1555.06 469.018,1557.33 479.783,1561.87C490.557,1566.41 498.844,1573.09 504.644,1581.92C510.435,1590.74 513.549,1600.74 513.985,1611.9L489.845,1613.71C488.545,1601.69 484.15,1592.61 476.669,1586.46C469.189,1580.32 458.13,1577.25 443.511,1577.25C428.285,1577.25 417.188,1580.04 410.22,1585.61C403.252,1591.19 399.778,1597.92 399.778,1605.8C399.778,1612.64 402.237,1618.26 407.173,1622.67C412.014,1627.09 424.668,1631.61 445.134,1636.23C465.591,1640.86 479.631,1644.91 487.254,1648.37C498.322,1653.48 506.495,1659.94 511.783,1667.77C517.051,1675.6 519.69,1684.62 519.69,1694.83C519.69,1704.96 516.795,1714.5 510.995,1723.45C505.204,1732.4 496.87,1739.37 486.02,1744.34C475.16,1749.32 462.933,1751.8 449.349,1751.8C432.129,1751.8 417.7,1749.3 406.072,1744.28C394.433,1739.26 385.301,1731.72 378.685,1721.63C372.069,1711.55 368.585,1700.15 368.233,1687.43Z" style="fill:#555655;fill-rule:nonzero;"></path><path d="M570.021,1748.56L570.021,1558.3L707.59,1558.3L707.59,1580.75L595.205,1580.75L595.205,1639.02L700.451,1639.02L700.451,1661.35L595.205,1661.35L595.205,1726.11L712.004,1726.11L712.004,1748.56L570.021,1748.56Z" style="fill:#555655;fill-rule:nonzero;"></path><path d="M787.775,1642.27L841.894,1642.27C853.399,1642.27 862.398,1641.08 868.891,1638.7C875.374,1636.32 880.311,1632.52 883.681,1627.28C887.06,1622.05 888.74,1616.36 888.74,1610.21C888.74,1601.22 885.475,1593.82 878.944,1588.02C872.413,1582.22 862.094,1579.32 847.988,1579.32L787.775,1579.32L787.775,1642.27ZM762.591,1748.56L762.591,1558.3L846.953,1558.3C863.907,1558.3 876.808,1560.01 885.627,1563.43C894.455,1566.85 901.508,1572.88 906.786,1581.53C912.064,1590.18 914.703,1599.75 914.703,1610.21C914.703,1623.71 910.327,1635.09 901.593,1644.35C892.851,1653.61 879.352,1659.49 861.097,1661.99C867.761,1665.2 872.821,1668.35 876.286,1671.47C883.633,1678.22 890.601,1686.65 897.179,1696.77L930.271,1748.56L898.613,1748.56L873.428,1708.98C866.072,1697.55 860.015,1688.82 855.259,1682.76C850.503,1676.7 846.241,1672.46 842.473,1670.04C838.713,1667.62 834.888,1665.93 830.986,1664.98C828.139,1664.37 823.459,1664.07 816.975,1664.07L787.775,1664.07L787.775,1748.56L762.591,1748.56Z" style="fill:#555655;fill-rule:nonzero;"></path><path d="M1019.15,1748.56L945.431,1558.3L972.694,1558.3L1022.14,1696.52C1026.12,1707.6 1029.45,1717.98 1032.13,1727.66C1035.07,1717.29 1038.49,1706.9 1042.38,1696.52L1093.78,1558.3L1119.48,1558.3L1044.98,1748.56L1019.15,1748.56Z" style="fill:#555655;fill-rule:nonzero;"></path><rect x="1161.76" y="1558.3" width="25.175" height="190.254" style="fill:#555655;"></rect><path d="M1382.5,1681.85L1407.67,1688.21C1402.39,1708.89 1392.89,1724.66 1379.18,1735.51C1365.47,1746.38 1348.7,1751.8 1328.89,1751.8C1308.39,1751.8 1291.71,1747.63 1278.86,1739.28C1266.01,1730.94 1256.23,1718.84 1249.53,1703.01C1242.82,1687.18 1239.47,1670.17 1239.47,1652.01C1239.47,1632.19 1243.25,1614.91 1250.82,1600.16C1258.4,1585.4 1269.17,1574.19 1283.14,1566.54C1297.11,1558.88 1312.5,1555.06 1329.28,1555.06C1348.31,1555.06 1364.33,1559.9 1377.3,1569.59C1390.28,1579.28 1399.32,1592.91 1404.42,1610.48L1379.64,1616.31C1375.23,1602.47 1368.82,1592.39 1360.43,1586.07C1352.03,1579.76 1341.48,1576.6 1328.76,1576.6C1314.14,1576.6 1301.91,1580.1 1292.1,1587.11C1282.27,1594.12 1275.37,1603.53 1271.39,1615.34C1267.42,1627.14 1265.43,1639.33 1265.43,1651.87C1265.43,1668.06 1267.79,1682.17 1272.5,1694.25C1277.21,1706.31 1284.55,1715.33 1294.5,1721.3C1304.45,1727.27 1315.22,1730.26 1326.81,1730.26C1340.92,1730.26 1352.86,1726.2 1362.64,1718.07C1372.41,1709.93 1379.03,1697.87 1382.5,1681.85Z" style="fill:#555655;fill-rule:nonzero;"></path><path d="M1454.62,1748.56L1454.62,1558.3L1592.19,1558.3L1592.19,1580.75L1479.81,1580.75L1479.81,1639.02L1585.05,1639.02L1585.05,1661.35L1479.81,1661.35L1479.81,1726.11L1596.61,1726.11L1596.61,1748.56L1454.62,1748.56Z" style="fill:#555655;fill-rule:nonzero;"></path><path d="M2139.61,1681.85L2164.78,1688.21C2159.51,1708.89 2150.01,1724.66 2136.3,1735.51C2122.58,1746.38 2105.82,1751.8 2086.01,1751.8C2065.5,1751.8 2048.82,1747.63 2035.98,1739.28C2023.12,1730.94 2013.35,1718.84 2006.64,1703.01C1999.94,1687.18 1996.59,1670.17 1996.59,1652.01C1996.59,1632.19 2000.37,1614.91 2007.95,1600.16C2015.51,1585.4 2026.29,1574.19 2040.26,1566.54C2054.23,1558.88 2069.61,1555.06 2086.39,1555.06C2105.43,1555.06 2121.44,1559.9 2134.42,1569.59C2147.39,1579.28 2156.43,1592.91 2161.54,1610.48L2136.75,1616.31C2132.34,1602.47 2125.93,1592.39 2117.55,1586.07C2109.15,1579.76 2098.6,1576.6 2085.88,1576.6C2071.25,1576.6 2059.04,1580.1 2049.21,1587.11C2039.39,1594.12 2032.49,1603.53 2028.52,1615.34C2024.53,1627.14 2022.55,1639.33 2022.55,1651.87C2022.55,1668.06 2024.9,1682.17 2029.62,1694.25C2034.34,1706.31 2041.66,1715.33 2051.61,1721.3C2061.56,1727.27 2072.34,1730.26 2083.93,1730.26C2098.03,1730.26 2109.97,1726.2 2119.75,1718.07C2129.53,1709.93 2136.14,1697.87 2139.61,1681.85Z" style="fill:#555655;fill-rule:nonzero;"></path><path d="M2210.18,1748.56L2210.18,1558.3L2235.36,1558.3L2235.36,1726.11L2329.07,1726.11L2329.07,1748.56L2210.18,1748.56Z" style="fill:#555655;fill-rule:nonzero;"></path><path d="M2392.76,1656.29C2392.76,1679.21 2398.92,1697.28 2411.26,1710.47C2423.59,1723.67 2439.04,1730.26 2457.66,1730.26C2476.6,1730.26 2492.19,1723.6 2504.45,1710.27C2516.68,1696.95 2522.8,1678.04 2522.8,1653.56C2522.8,1638.07 2520.18,1624.55 2514.95,1613C2509.71,1601.45 2502.06,1592.5 2491.98,1586.13C2481.9,1579.78 2470.59,1576.6 2458.05,1576.6C2440.22,1576.6 2424.89,1582.72 2412.03,1594.96C2399.19,1607.21 2392.76,1627.65 2392.76,1656.29ZM2366.81,1655.9C2366.81,1624.32 2375.29,1599.6 2392.24,1581.72C2409.2,1563.86 2431.09,1554.92 2457.9,1554.92C2475.47,1554.92 2491.31,1559.12 2505.41,1567.51C2519.51,1575.91 2530.27,1587.61 2537.67,1602.61C2545.07,1617.63 2548.76,1634.65 2548.76,1653.69C2548.76,1672.98 2544.87,1690.24 2537.08,1705.47C2529.3,1720.7 2518.27,1732.23 2503.99,1740.06C2489.71,1747.89 2474.31,1751.8 2457.78,1751.8C2439.88,1751.8 2423.86,1747.48 2409.76,1738.83C2395.66,1730.18 2384.98,1718.37 2377.71,1703.4C2370.44,1688.43 2366.81,1672.6 2366.81,1655.9Z" style="fill:#555655;fill-rule:nonzero;"></path><path d="M2721.48,1558.3L2746.65,1558.3L2746.65,1668.23C2746.65,1687.35 2744.49,1702.54 2740.17,1713.78C2735.84,1725.02 2728.03,1734.17 2716.74,1741.23C2705.45,1748.28 2690.63,1751.8 2672.29,1751.8C2654.46,1751.8 2639.89,1748.74 2628.55,1742.6C2617.21,1736.45 2609.12,1727.56 2604.28,1715.92C2599.43,1704.28 2597.01,1688.39 2597.01,1668.23L2597.01,1558.3L2622.19,1558.3L2622.19,1668.1C2622.19,1684.62 2623.72,1696.8 2626.8,1704.63C2629.86,1712.47 2635.15,1718.5 2642.63,1722.74C2650.11,1726.98 2659.26,1729.1 2670.08,1729.1C2688.6,1729.1 2701.79,1724.9 2709.67,1716.51C2717.54,1708.12 2721.48,1691.98 2721.48,1668.1L2721.48,1558.3Z" style="fill:#555655;fill-rule:nonzero;"></path><path d="M2829.17,1726.11L2869.79,1726.11C2882.33,1726.11 2892.18,1724.94 2899.32,1722.6C2906.45,1720.27 2912.14,1716.98 2916.38,1712.74C2922.35,1706.77 2927.01,1698.75 2930.34,1688.67C2933.66,1678.59 2935.33,1666.37 2935.33,1652.01C2935.33,1632.1 2932.07,1616.82 2925.53,1606.13C2918.99,1595.44 2911.06,1588.28 2901.72,1584.64C2894.97,1582.04 2884.11,1580.75 2869.14,1580.75L2829.17,1580.75L2829.17,1726.11ZM2803.99,1748.56L2803.99,1558.3L2869.53,1558.3C2884.33,1558.3 2895.62,1559.2 2903.41,1561.03C2914.3,1563.53 2923.61,1568.08 2931.31,1574.65C2941.34,1583.13 2948.85,1593.97 2953.82,1607.16C2958.8,1620.36 2961.29,1635.44 2961.29,1652.39C2961.29,1666.84 2959.6,1679.65 2956.22,1690.81C2952.86,1701.97 2948.53,1711.2 2943.25,1718.51C2937.97,1725.83 2932.2,1731.58 2925.92,1735.78C2919.65,1739.98 2912.07,1743.15 2903.21,1745.32C2894.34,1747.48 2884.16,1748.56 2872.65,1748.56L2803.99,1748.56Z" style="fill:#555655;fill-rule:nonzero;"></path><path d="M3726.24,1748.56L3726.24,1558.3L3751.41,1558.3L3751.41,1636.43L3850.31,1636.43L3850.31,1558.3L3875.49,1558.3L3875.49,1748.56L3850.31,1748.56L3850.31,1658.88L3751.41,1658.88L3751.41,1748.56L3726.24,1748.56Z" style="fill:#555655;fill-rule:nonzero;"></path><path d="M3951.12,1656.29C3951.12,1679.21 3957.29,1697.28 3969.62,1710.47C3981.95,1723.67 3997.41,1730.26 4016.01,1730.26C4034.96,1730.26 4050.56,1723.6 4062.8,1710.27C4075.05,1696.95 4081.17,1678.04 4081.17,1653.56C4081.17,1638.07 4078.55,1624.55 4073.32,1613C4068.08,1601.45 4060.42,1592.5 4050.35,1586.13C4040.27,1579.78 4028.95,1576.6 4016.4,1576.6C3998.58,1576.6 3983.25,1582.72 3970.4,1594.96C3957.55,1607.21 3951.12,1627.65 3951.12,1656.29ZM3925.17,1655.9C3925.17,1624.32 3933.66,1599.6 3950.61,1581.72C3967.56,1563.86 3989.46,1554.92 4016.28,1554.92C4033.84,1554.92 4049.68,1559.12 4063.78,1567.51C4077.88,1575.91 4088.63,1587.61 4096.03,1602.61C4103.42,1617.63 4107.13,1634.65 4107.13,1653.69C4107.13,1672.98 4103.23,1690.24 4095.45,1705.47C4087.66,1720.7 4076.63,1732.23 4062.35,1740.06C4048.07,1747.89 4032.68,1751.8 4016.15,1751.8C3998.24,1751.8 3982.23,1747.48 3968.12,1738.83C3954.03,1730.18 3943.34,1718.37 3936.08,1703.4C3928.81,1688.43 3925.17,1672.6 3925.17,1655.9Z" style="fill:#555655;fill-rule:nonzero;"></path><path d="M4146.42,1687.43L4170.17,1685.35C4171.29,1694.88 4173.91,1702.68 4178.02,1708.78C4182.12,1714.88 4188.51,1719.81 4197.16,1723.58C4205.81,1727.34 4215.54,1729.22 4226.36,1729.22C4235.96,1729.22 4244.45,1727.8 4251.8,1724.94C4259.15,1722.08 4264.63,1718.17 4268.22,1713.2C4271.81,1708.22 4273.6,1702.79 4273.6,1696.91C4273.6,1690.93 4271.87,1685.72 4268.41,1681.27C4264.95,1676.81 4259.24,1673.07 4251.28,1670.04C4246.18,1668.06 4234.88,1664.96 4217.4,1660.76C4199.93,1656.57 4187.68,1652.61 4180.68,1648.88C4171.59,1644.14 4164.82,1638.22 4160.36,1631.17C4155.91,1624.12 4153.68,1616.23 4153.68,1607.48C4153.68,1597.88 4156.4,1588.91 4161.86,1580.55C4167.31,1572.21 4175.27,1565.87 4185.74,1561.54C4196.21,1557.22 4207.84,1555.06 4220.65,1555.06C4234.75,1555.06 4247.19,1557.33 4257.97,1561.87C4268.73,1566.41 4277.03,1573.09 4282.82,1581.92C4288.61,1590.74 4291.72,1600.74 4292.16,1611.9L4268.02,1613.71C4266.73,1601.69 4262.33,1592.61 4254.85,1586.46C4247.36,1580.32 4236.3,1577.25 4221.69,1577.25C4206.46,1577.25 4195.36,1580.04 4188.4,1585.61C4181.44,1591.19 4177.95,1597.92 4177.95,1605.8C4177.95,1612.64 4180.42,1618.26 4185.35,1622.67C4190.2,1627.09 4202.85,1631.61 4223.31,1636.23C4243.77,1640.86 4257.81,1644.91 4265.43,1648.37C4276.51,1653.48 4284.68,1659.94 4289.96,1667.77C4295.23,1675.6 4297.87,1684.62 4297.87,1694.83C4297.87,1704.96 4294.97,1714.5 4289.18,1723.45C4283.38,1732.4 4275.05,1739.37 4264.19,1744.34C4253.33,1749.32 4241.11,1751.8 4227.53,1751.8C4210.31,1751.8 4195.88,1749.3 4184.24,1744.28C4172.61,1739.26 4163.48,1731.72 4156.86,1721.63C4150.24,1711.55 4146.76,1700.15 4146.42,1687.43Z" style="fill:#555655;fill-rule:nonzero;"></path><path d="M4396.09,1748.56L4396.09,1580.75L4333.4,1580.75L4333.4,1558.3L4484.22,1558.3L4484.22,1580.75L4421.27,1580.75L4421.27,1748.56L4396.09,1748.56Z" style="fill:#555655;fill-rule:nonzero;"></path><rect x="4529.74" y="1558.3" width="25.175" height="190.254" style="fill:#555655;"></rect><path d="M4614.46,1748.56L4614.46,1558.3L4640.29,1558.3L4740.22,1707.68L4740.22,1558.3L4764.36,1558.3L4764.36,1748.56L4738.54,1748.56L4638.6,1599.05L4638.6,1748.56L4614.46,1748.56Z" style="fill:#555655;fill-rule:nonzero;"></path><path d="M4911.11,1673.93L4911.11,1651.62L4991.72,1651.48L4991.72,1722.08C4979.34,1731.94 4966.58,1739.37 4953.41,1744.34C4940.28,1749.32 4926.78,1751.8 4912.94,1751.8C4894.25,1751.8 4877.26,1747.81 4862,1739.8C4846.73,1731.8 4835.19,1720.23 4827.41,1705.08C4819.62,1689.95 4815.73,1673.02 4815.73,1654.34C4815.73,1635.83 4819.61,1618.54 4827.34,1602.49C4835.09,1586.44 4846.22,1574.53 4860.77,1566.73C4875.3,1558.95 4892.03,1555.06 4910.99,1555.06C4924.74,1555.06 4937.17,1557.29 4948.3,1561.74C4959.41,1566.2 4968.14,1572.4 4974.45,1580.36C4980.76,1588.33 4985.57,1598.7 4988.86,1611.51L4966.15,1617.74C4963.28,1608.05 4959.74,1600.43 4955.5,1594.9C4951.27,1589.36 4945.2,1584.93 4937.33,1581.6C4929.47,1578.27 4920.72,1576.6 4911.11,1576.6C4899.61,1576.6 4889.66,1578.35 4881.27,1581.85C4872.88,1585.36 4866.1,1589.96 4860.95,1595.67C4855.81,1601.39 4851.8,1607.66 4848.96,1614.49C4844.11,1626.26 4841.69,1639.02 4841.69,1652.78C4841.69,1669.74 4844.61,1683.93 4850.45,1695.35C4856.28,1706.77 4864.79,1715.26 4875.94,1720.79C4887.11,1726.32 4898.95,1729.1 4911.51,1729.1C4922.41,1729.1 4933.04,1727 4943.43,1722.8C4953.81,1718.61 4961.69,1714.13 4967.06,1709.37L4967.06,1673.93L4911.11,1673.93Z" style="fill:#555655;fill-rule:nonzero;"></path></svg> 