<svg width="60" height="60" viewBox="0 0 60 60" fill="none" xmlns="http://www.w3.org/2000/svg">
<path d="M59.9072 48.2344C59.7197 43.7812 56.1806 40.0781 51.8681 39.7734C49.6416 39.6094 47.3916 39.6562 45.2119 39.6797C44.1338 39.7031 43.0088 39.7031 41.9072 39.7031C41.7197 39.7031 41.4619 39.6094 41.3916 39.4922C39.4931 36.9609 36.8916 35.6719 33.7041 35.6484C31.4775 35.6484 29.1103 35.6484 26.2744 35.6484C23.0634 35.6484 20.4853 36.9609 18.5869 39.4922C18.5166 39.5859 18.3056 39.7031 18.1884 39.7031C17.0869 39.7031 15.9619 39.6797 14.8838 39.6562C12.8916 39.6328 10.8056 39.5859 8.76657 39.6562C4.31345 39.8203 0.680635 43.125 0.141573 47.5547C-0.0224897 48.8203 0.000947812 50.1094 0.0243853 51.3516C0.0243853 51.75 0.0243853 52.125 0.0243853 52.5234C0.0243853 56.7891 3.11814 59.9062 7.38376 59.9297C9.4697 59.9297 11.5556 59.9297 13.665 59.9297H14.9775V57.4688H8.39157V46.6406H5.95407V57.3047C4.31345 57.0234 2.81345 55.4531 2.60251 53.7656C2.43845 52.5469 2.46189 51.2813 2.46189 50.0625C2.46189 49.7344 2.46189 49.4297 2.46189 49.1016C2.46189 47.1328 3.14157 45.3281 4.4072 44.0625C5.67282 42.7969 7.45407 42.0938 9.42282 42.0938C11.1103 42.0938 12.7744 42.0938 14.4619 42.0938H17.2275C17.1806 42.2813 17.1572 42.4922 17.1103 42.6797C16.9931 43.2891 16.8759 43.8516 16.8759 44.4375C16.8291 48.0234 16.8291 51.5625 16.8525 54.9609C16.8759 57.2813 18.54 59.3203 20.7431 59.7422C21.7041 59.9297 22.6884 59.9297 23.6494 59.9531C24.0713 59.9531 24.5166 59.9766 24.9384 60L25.1728 60.0234V43.6641H22.8056V57.4922C21.7275 57.5859 20.8369 57.3516 20.2275 56.7891C19.5713 56.2031 19.2431 55.2656 19.2666 54.1641C19.3369 52.125 19.3369 50.0391 19.3134 48.0234C19.3134 47.0625 19.29 46.0781 19.29 45.1172C19.29 41.0391 22.1494 38.1797 26.2509 38.1562C28.8759 38.1562 31.4775 38.1562 33.6806 38.1562C37.7119 38.1562 40.6181 41.0859 40.6416 45.1172C40.6416 48.2344 40.6416 51.3516 40.6416 54.4688C40.6416 55.5234 40.29 56.3438 39.6338 56.8828C39.0009 57.3984 38.1103 57.6094 37.1025 57.4453V43.6641H34.7353V59.9297H34.9697C35.2978 59.9297 35.6494 59.9297 35.9775 59.9297C36.7041 59.9297 37.4072 59.9297 38.1103 59.9297C40.8056 59.8594 43.0791 57.6094 43.0556 55.0313C43.0556 53.7891 43.0791 52.5234 43.1025 51.2813C43.1728 48.2813 43.2431 45.1875 42.7509 42.1172C43.5713 42.1172 44.415 42.1172 45.2353 42.0938C47.1806 42.0703 49.1728 42.0703 51.1416 42.1406C54.1416 42.2344 56.6728 44.3672 57.3056 47.3203C57.4931 48.1641 57.4931 49.0781 57.4931 49.9688C57.4931 50.1094 57.4931 50.2734 57.4931 50.4141V50.7891C57.4931 51.7734 57.5166 52.8047 57.3525 53.7891C57.0947 55.5 55.5713 57.0469 53.9775 57.3281V46.6641H51.54V57.5625H44.9775V59.9297L45.3056 59.9531C45.3994 59.9531 45.4697 59.9766 45.54 59.9766C46.5009 59.9766 45.1416 59.9766 46.1025 59.9766C48.3525 59.9766 50.6963 59.9766 52.9931 59.9531C56.3916 59.9063 59.3681 57.3047 59.7666 54C60.0244 52.0078 59.9775 50.0625 59.9072 48.2344Z" fill="#263238"/>
<path d="M56.9531 30.0234C56.9531 30.8906 56.5781 31.7344 55.9219 32.3438C55.5234 32.7188 55.0312 32.9766 54.5156 33.0703V29.5547C54.4922 28.3828 54.4922 27.1875 54.4922 26.0391C54.4922 25.4766 54.4922 24.9141 54.4922 24.3516C54.4922 23.4844 54.2578 23.25 53.3672 23.25C52.9219 23.25 52.4531 23.25 52.0078 23.25C50.9766 23.25 49.8984 23.25 48.8437 23.2266C48.5859 23.2266 48.1406 23.0156 48.0703 22.7344C47.5547 20.6719 46.7344 18.75 45.5391 16.875L45.4453 16.7109L46.6406 15.5391C47.4609 14.7422 48.2578 13.9219 49.0547 13.125C49.4531 12.75 49.6172 12.4922 49.6172 12.2578C49.6172 12.0469 49.4531 11.7891 49.0547 11.3906L48.3516 10.6875C47.3906 9.70312 46.4062 8.74219 45.4219 7.75781C44.8125 7.17187 44.5078 7.14844 43.8984 7.73437L43.5469 8.0625C42.6094 9 41.625 9.96094 40.6875 10.9219C40.3828 11.25 40.0547 11.3906 39.5625 11.0859C37.9453 10.0781 36.1875 9.32812 34.2891 8.88281C33.7266 8.74219 33.6094 8.41406 33.6094 7.96875C33.6328 6.53906 33.6328 5.0625 33.6094 3.65625V3.39844C33.6094 2.67188 33.3516 2.41406 32.6484 2.41406C30.8906 2.41406 29.0859 2.41406 27.1406 2.41406C26.4141 2.41406 26.1562 2.67188 26.1562 3.44531C26.1562 4.54688 26.1562 5.64844 26.1562 6.72656V8.08594C26.1562 8.32031 26.1562 8.71875 25.6172 8.83594C23.5781 9.30469 21.6797 10.125 19.8047 11.3203L19.6406 11.4141L19.4531 11.2031C19.3359 11.0859 19.2187 10.9922 19.125 10.8984C18.7734 10.5469 18.3984 10.1719 18.0469 9.82031C17.3437 9.11719 16.6406 8.41406 15.9141 7.71094C15.4453 7.24219 15.0469 7.24219 14.5781 7.71094C13.1953 9.09375 11.9062 10.3828 10.6406 11.6484C10.1484 12.1406 10.1719 12.4922 10.6641 12.9844C11.5312 13.8516 12.3984 14.7188 13.2656 15.5859L14.4375 16.7578L14.3437 16.875C14.2266 17.0859 14.1094 17.2969 13.9687 17.5078C13.6875 17.9766 13.4531 18.4219 13.2422 18.8672C12.8437 19.7812 12.3516 21.0234 12 22.2656C11.8125 22.9453 11.5312 23.2969 10.7109 23.2734C9.67969 23.2266 8.64844 23.2266 7.61719 23.25C7.24219 23.25 6.86719 23.25 6.51562 23.25C5.67187 23.25 5.4375 23.4844 5.4375 24.3047C5.4375 26.0859 5.4375 27.8438 5.4375 29.625V33.0469C4.96875 32.9531 4.52344 32.7422 4.10156 32.4141C3.42187 31.8516 3.02344 31.0547 3 30.2344C2.92969 28.1953 2.92969 26.0156 3 23.7891C3.04687 22.1719 4.45312 20.8594 6.21094 20.8125C7.28906 20.7891 8.41406 20.8125 9.46875 20.8125H9.5625C9.82031 20.8125 9.86719 20.7891 9.9375 20.6016C10.2656 19.7344 10.5937 18.8906 10.9687 18C11.0859 17.6953 11.2031 17.3906 11.3437 17.0859L10.7578 16.5C10.2187 15.9609 9.63281 15.3984 9.07031 14.8359C7.42969 13.1953 7.42969 11.3906 9.07031 9.75L9.65625 9.16406C10.7109 8.10937 11.7422 7.07813 12.7969 6.02344C14.3203 4.52344 16.1953 4.5 17.7187 6L18.0234 6.30469C18.6562 6.91406 19.2891 7.54687 19.8984 8.20312C20.0625 8.39062 20.1562 8.39062 20.4375 8.27344C21.5625 7.75781 22.5703 7.33594 23.5312 6.98438C23.7891 6.89062 23.8125 6.82031 23.8125 6.58594C23.7891 5.41406 23.7891 4.26562 23.8125 3.30469C23.8359 1.38281 25.1719 0.0234375 27.0937 0.0234375C28.8516 4.65661e-10 30.75 4.65661e-10 32.8594 0.0234375C34.8047 0.046875 36.1641 1.40625 36.1641 3.35156C36.1641 4.42969 36.1875 5.50781 36.1641 6.58594C36.1641 6.84375 36.1875 6.91406 36.4687 7.03125C37.5469 7.42969 38.5781 7.875 39.5625 8.32031C39.8203 8.4375 39.8906 8.41406 40.0781 8.22656C40.875 7.40625 41.6953 6.58594 42.3047 5.97656C43.7344 4.57031 45.6328 4.57031 47.0391 5.95312C48.4219 7.28906 49.7812 8.67187 51.1172 10.0312C52.4531 11.3906 52.4531 13.2422 51.1172 14.625C50.3672 15.3984 49.5937 16.1719 48.75 16.9922C48.5859 17.1562 48.5625 17.2266 48.6797 17.4609C49.1719 18.5625 49.5937 19.5703 49.9687 20.5547C50.0625 20.8125 50.1328 20.8828 50.4141 20.8594C51.4687 20.8359 52.5234 20.8359 53.5781 20.8594C55.6172 20.8828 56.9766 22.2422 56.9766 24.2344V24.9609C56.9531 26.6016 56.9766 28.3359 56.9531 30.0234Z" fill="#FB5D1E"/>
<path d="M43.9922 25.2422H41.4844C40.9688 22.0547 39.4219 19.5001 36.7969 17.5547C34.6172 15.9376 32.0859 15.1876 29.3203 15.3516C23.7656 15.6563 19.3359 19.7813 18.4219 25.2422H15.9844C16.5 21.1876 18.3984 17.9532 21.6563 15.6329C26.3672 12.2813 31.4062 11.9063 36.6094 14.5782C40.6406 16.6407 43.5 20.8594 43.9922 25.2422Z" fill="#263238"/>
<path d="M29.9531 22.8047C26.5547 22.8047 23.7891 25.5937 23.7891 28.9922C23.7891 30.6328 24.4219 32.1797 25.5937 33.3516C26.7656 34.5234 28.3125 35.1563 29.9531 35.1563C33.3516 35.1563 36.1172 32.3906 36.1172 28.9922C36.1172 27.3516 35.4609 25.8047 34.2891 24.6328C33.1641 23.4375 31.6172 22.8047 29.9531 22.8047C29.9766 22.8047 29.9766 22.8047 29.9531 22.8047ZM32.625 26.3672C33.3281 27.0938 33.7031 28.0313 33.7031 29.0156C33.7031 30 33.3047 30.9375 32.6016 31.6172C31.8984 32.3203 30.9375 32.6953 29.9297 32.6953C28.9453 32.6953 28.0078 32.2969 27.3047 31.5703C26.6016 30.8438 26.2266 29.9063 26.25 28.8984C26.2734 26.8594 27.9375 25.2187 29.9766 25.2187H30C30.9844 25.2656 31.9219 25.6406 32.625 26.3672Z" fill="#263238"/>
<path d="M13.1484 26.7656C13.125 26.7656 13.125 26.7656 13.1016 26.7656C11.4844 26.7656 9.9375 27.3984 8.76563 28.5703C7.59375 29.7422 6.9375 31.2891 6.91406 32.9297C6.91406 34.5703 7.54687 36.1406 8.69531 37.3125C9.86719 38.4844 11.4141 39.1406 13.0547 39.1406H13.0781C16.4766 39.1406 19.2422 36.3984 19.2656 33C19.3125 29.5781 16.5469 26.7891 13.1484 26.7656ZM13.125 29.2031C14.1328 29.2031 15.0703 29.6016 15.7734 30.3281C16.4766 31.0547 16.875 31.9922 16.8516 32.9766C16.8516 33.9609 16.4531 34.8984 15.75 35.5781C15.0469 36.2813 14.0859 36.6562 13.0781 36.6562C12.0937 36.6562 11.1562 36.2578 10.4531 35.5547C9.75 34.8281 9.375 33.8906 9.39844 32.8828C9.42187 30.8438 11.0859 29.2031 13.125 29.2031Z" fill="#FB5D1E"/>
<path d="M46.8047 39.1172C50.2031 39.1172 52.9922 36.3516 52.9922 32.9531C52.9922 31.3125 52.3359 29.7656 51.1641 28.5938C49.9922 27.4219 48.4453 26.7656 46.8047 26.7656C43.4062 26.7656 40.6406 29.5313 40.6406 32.9531C40.6406 34.5938 41.2734 36.1406 42.4453 37.3125C43.6172 38.4844 45.1641 39.1172 46.8047 39.1172ZM43.0781 32.9062C43.1016 30.8672 44.7656 29.2031 46.8047 29.2031C47.7891 29.2031 48.7266 29.5781 49.4297 30.3047C50.1328 31.0078 50.5312 31.9453 50.5312 32.9531C50.5312 33.9375 50.1328 34.875 49.4531 35.5781C48.75 36.2813 47.8125 36.6562 46.8047 36.6562C45.7969 36.6562 44.8594 36.2578 44.1797 35.5547C43.4531 34.8516 43.0781 33.9141 43.0781 32.9062Z" fill="#FB5D1E"/>
<path d="M33.4453 57.5156H26.5312V59.8828H33.4453V57.5156Z" fill="#263238"/>
</svg>
