<svg width="60" height="60" viewBox="0 0 60 60" fill="none" xmlns="http://www.w3.org/2000/svg">
<path d="M2.92929 0.152343C1.86289 0.457031 0.79648 1.38281 0.316011 2.4375C-0.0707077 3.28125 -0.0472702 4.75781 0.362886 5.63672C0.749605 6.44531 1.42929 7.14844 2.2496 7.58203C2.80039 7.875 2.9996 7.91016 3.98398 7.91016C4.96836 7.91016 5.17929 7.875 5.76523 7.58203C6.51523 7.21875 7.23007 6.46875 7.64023 5.64844C7.86289 5.19141 7.90976 4.91016 7.90976 3.98437C7.90976 3 7.87461 2.80078 7.58164 2.25C6.67929 0.539062 4.71054 -0.351563 2.92929 0.152343ZM4.88632 2.23828C6.28086 2.90625 6.32773 4.94531 4.98007 5.70703C3.98398 6.26953 2.71835 5.89453 2.23789 4.88672C1.83945 4.05469 1.94492 3.30469 2.55429 2.64844C3.19882 1.96875 4.03085 1.81641 4.88632 2.23828Z" fill="#FB5D1E"/>
<path d="M54.9023 0.152344C53.7891 0.527344 53.0273 1.14844 52.4883 2.13281C52.1133 2.82422 52.0898 2.94141 52.0898 3.98438C52.0898 5.30859 52.3359 5.94141 53.2031 6.79688C54.0586 7.66406 54.6914 7.91016 56.0156 7.91016C57 7.91016 57.1992 7.875 57.75 7.58203C58.5703 7.14844 59.25 6.44531 59.6367 5.63672C60.0469 4.75781 60.0703 3.29297 59.6836 2.4375C59.3437 1.67578 58.4531 0.761719 57.7148 0.398438C56.9648 0.0351562 55.6172 -0.0820312 54.9023 0.152344ZM56.6836 2.12109C57.1289 2.28516 57.6562 2.78906 57.8437 3.24609C58.2305 4.13672 57.8555 5.19141 57 5.69531C56.0039 6.28125 54.6914 5.89453 54.2109 4.88672C53.4609 3.29297 55.0547 1.5 56.6836 2.12109Z" fill="#FB5D1E"/>
<path d="M9.96094 2.98828V3.98438H10.957H11.9531V2.98828V1.99219H10.957H9.96094V2.98828Z" fill="#263238"/>
<path d="M14.0273 2.0625C13.9805 2.10937 13.9453 2.56641 13.9453 3.07031V3.98438H15H16.0664L16.0312 3.01172L15.9961 2.05078L15.0586 2.01562C14.5312 2.00391 14.0742 2.01562 14.0273 2.0625Z" fill="#263238"/>
<path d="M18.0469 2.98828V3.98438H19.043H20.0391V2.98828V1.99219H19.043H18.0469V2.98828Z" fill="#263238"/>
<path d="M22.0312 2.98828V3.98438H23.0273H24.0234V2.98828V1.99219H23.0273H22.0312V2.98828Z" fill="#263238"/>
<path d="M26.0156 2.98828V3.98438H27.0117H28.0078V2.98828V1.99219H27.0117H26.0156V2.98828Z" fill="#263238"/>
<path d="M30 2.98828V3.98438H30.9961H31.9922V2.98828V1.99219H30.9961H30V2.98828Z" fill="#263238"/>
<path d="M30 6.97266V7.96875H30.9961H31.9922V6.97266V5.97656H30.9961H30V6.97266Z" fill="#263238"/>
<path d="M25.5581 10.125C25.0659 10.4062 24.9721 10.7344 24.9604 12.3047V13.7695L24.2339 14.0391C23.8237 14.1797 23.1792 14.4492 22.7925 14.6367L22.0893 14.9648L20.9643 13.875C19.2651 12.2109 19.6284 12.082 15.855 15.8555C12.0815 19.6289 12.2104 19.2656 13.8745 20.9648L14.9643 22.0898L14.6362 22.793C14.4487 23.1797 14.1792 23.8242 14.0385 24.2227L13.769 24.9609H12.3276C10.7456 24.9609 10.3354 25.0781 10.101 25.6055C9.87839 26.0859 9.90183 34.0078 10.1245 34.4414C10.3823 34.9336 10.769 35.0391 12.3393 35.0391H13.769L14.0385 35.7656C14.1792 36.1758 14.4487 36.8203 14.6362 37.207L14.9643 37.9102L13.8745 39.0352C12.2104 40.7344 12.0815 40.3711 15.855 44.1445C19.6284 47.918 19.2651 47.7891 20.9643 46.125L22.0893 45.0352L22.7925 45.3633C23.1792 45.5508 23.8237 45.8203 24.2339 45.9609L24.9604 46.2305V47.6719C24.9604 49.2539 25.0776 49.6641 25.605 49.8984C26.0385 50.0977 33.9604 50.0977 34.394 49.8984C34.9214 49.6641 35.0385 49.2539 35.0385 47.6719V46.2305L35.7768 45.9609C36.1753 45.8203 36.8198 45.5508 37.2065 45.3633L37.9096 45.0352L39.0346 46.125C40.7339 47.7891 40.3706 47.918 44.144 44.1445C47.9174 40.3711 47.7885 40.7344 46.1245 39.0352L45.0346 37.9102L45.3628 37.207C45.5503 36.8203 45.8198 36.1758 45.9604 35.7656L46.2299 35.0391H47.6714C49.2534 35.0391 49.6635 34.9219 49.8979 34.3945C50.0971 33.9609 50.0971 26.0391 49.8979 25.6055C49.6635 25.0781 49.2534 24.9609 47.6714 24.9609H46.2299L45.9604 24.2227C45.8198 23.8242 45.5503 23.1797 45.3628 22.793L45.0346 22.0898L46.1245 20.9648C47.7885 19.2656 47.9174 19.6289 44.144 15.8555C40.3706 12.082 40.7339 12.2109 39.0346 13.875L37.9096 14.9648L37.2065 14.6367C36.8198 14.4492 36.1753 14.1797 35.7768 14.0391L35.0385 13.7695V12.3398C35.0385 10.7695 34.9331 10.3828 34.4409 10.125C33.9839 9.89062 25.98 9.89062 25.5581 10.125ZM33.0229 13.4883C33.0581 15.2578 33.0581 15.2695 34.6167 15.7617C35.1909 15.9492 36.1635 16.3477 36.7846 16.6641C37.4057 16.9687 38.0385 17.2266 38.1909 17.2266C38.3784 17.2266 38.7768 16.9219 39.4799 16.2305C40.0424 15.6797 40.5464 15.2344 40.6167 15.2344C40.7573 15.2344 44.7651 19.2422 44.7651 19.3828C44.7651 19.4414 44.3198 19.957 43.769 20.5195C43.0776 21.2227 42.7729 21.6211 42.7729 21.8086C42.7729 21.9609 43.0307 22.5937 43.3354 23.2148C43.6518 23.8359 44.0503 24.8086 44.2378 25.3828C44.7299 26.9414 44.7417 26.9414 46.5112 26.9766L47.9878 27.0117V30V32.9883L46.5112 33.0234C44.7417 33.0586 44.7299 33.0586 44.2378 34.6172C44.0503 35.1914 43.6518 36.1641 43.3354 36.7852C43.0307 37.4062 42.7729 38.0391 42.7729 38.1914C42.7729 38.3789 43.0776 38.7773 43.769 39.4805C44.3198 40.043 44.7651 40.5469 44.7651 40.6172C44.7651 40.7578 40.7573 44.7656 40.6167 44.7656C40.5581 44.7656 40.0424 44.3203 39.4799 43.7695C38.7768 43.0781 38.3784 42.7734 38.1909 42.7734C38.0385 42.7734 37.4057 43.0312 36.7846 43.3359C36.1635 43.6523 35.1909 44.0508 34.6167 44.2383C33.0581 44.7305 33.0581 44.7422 33.0229 46.5117L32.9878 47.9883H29.9995H27.0112L26.976 46.5117C26.9409 44.7422 26.9409 44.7305 25.3823 44.2383C24.8081 44.0508 23.8354 43.6523 23.2143 43.3359C22.5932 43.0312 21.9604 42.7734 21.8081 42.7734C21.6206 42.7734 21.2221 43.0781 20.519 43.7695C19.9565 44.3203 19.4526 44.7656 19.3823 44.7656C19.2417 44.7656 15.2339 40.7578 15.2339 40.6172C15.2339 40.5586 15.6792 40.043 16.23 39.4805C16.9214 38.7773 17.226 38.3789 17.226 38.1914C17.226 38.0391 16.9682 37.4062 16.6635 36.7852C16.3471 36.1641 15.9487 35.1914 15.7612 34.6172C15.269 33.0586 15.2573 33.0586 13.4878 33.0234L12.0112 32.9883V30V27.0117L13.4878 26.9766C15.2456 26.9414 15.2925 26.9062 15.6909 25.5469C15.8432 25.0664 16.2417 24.082 16.5932 23.3672C16.9448 22.6523 17.226 21.9492 17.226 21.7969C17.226 21.6211 16.8862 21.1875 16.23 20.5195C15.6792 19.957 15.2339 19.4531 15.2339 19.3828C15.2339 19.2422 19.2417 15.2344 19.3823 15.2344C19.4409 15.2344 19.9565 15.6797 20.519 16.2305C21.187 16.8867 21.6206 17.2266 21.7964 17.2266C21.9487 17.2266 22.6518 16.9453 23.3667 16.5937C24.0815 16.2422 25.0659 15.8437 25.5464 15.6914C26.9175 15.293 26.9526 15.2344 26.9526 13.5352C26.9526 12.75 26.9878 12.0703 27.0346 12.0234C27.0815 11.9883 28.4292 11.9648 30.0464 11.9766L32.9878 12.0117L33.0229 13.4883Z" fill="#263238"/>
<path d="M27.9141 18.1758C26.8594 18.3633 25.125 18.9844 24.1875 19.5234C21.3281 21.1523 19.4297 23.543 18.4336 26.8008C18.1406 27.7617 18.1172 27.9727 18.1172 30C18.1172 32.0273 18.1406 32.2383 18.4336 33.1992C19.1133 35.3906 20.0156 36.9141 21.5508 38.4492C23.0859 39.9844 24.6094 40.8867 26.8008 41.5664C27.7617 41.8594 27.9727 41.8828 30 41.8828C32.0273 41.8828 32.2383 41.8594 33.1992 41.5664C35.3906 40.8867 36.9141 39.9844 38.4492 38.4492C39.9844 36.9141 40.8867 35.3906 41.5664 33.1992C41.8594 32.2383 41.8828 32.0273 41.8828 30C41.8828 27.9727 41.8594 27.7617 41.5664 26.8008C40.2773 22.5937 37.3594 19.6875 33.2109 18.4453C32.3203 18.1875 31.8984 18.1289 30.3516 18.0937C29.3555 18.082 28.2539 18.1055 27.9141 18.1758ZM31.9922 20.2031C33.0937 20.4375 34.5117 21.0117 35.3789 21.5859C37.6523 23.0742 39.3516 25.5937 39.832 28.1836C39.9961 29.0625 39.9961 30.9375 39.832 31.8164C39.2226 35.0977 36.7734 38.0859 33.6914 39.2695C32.2031 39.8437 31.3242 39.9844 29.5898 39.9258C28.2656 39.8906 27.9141 39.832 26.9531 39.5039C25.418 38.9883 24.1641 38.2148 23.0273 37.0898C21 35.0977 20.0391 32.8125 20.0391 30C20.0391 28.582 20.2266 27.6211 20.7305 26.3086C21.8906 23.3086 24.7266 20.918 27.9492 20.2148C28.8867 20.0039 31.043 20.0039 31.9922 20.2031Z" fill="#FB5D1E"/>
<path d="M26.6485 23.0861C26.0039 23.3439 26.0156 23.2032 26.0156 30.0236V36.3165L26.2969 36.6329C26.836 37.2657 26.9063 37.2306 32.4844 33.8907C35.2969 32.2032 37.6875 30.7032 37.793 30.5626C38.0156 30.2228 38.0156 29.7775 37.793 29.4376C37.582 29.1564 27.5977 23.1329 27.1641 23.0392C27.0117 23.004 26.7774 23.0275 26.6485 23.0861ZM31.7344 28.0079C33.4805 29.0509 34.9219 29.9532 34.9219 30.0001C34.9219 30.047 33.4805 30.9493 31.7344 31.9923C29.9766 33.047 28.418 33.9845 28.2774 34.0782L28.0078 34.2423V30.0001V25.7579L28.2774 25.922C28.418 26.0157 29.9766 26.9532 31.7344 28.0079Z" fill="#FB5D1E"/>
<path d="M56.0156 10.957V11.9531H57.0117H58.0078V10.957V9.96094H57.0117H56.0156V10.957Z" fill="#263238"/>
<path d="M56.0156 15V16.0664L56.9883 16.0312L57.9492 15.9961V15V14.0039L56.9883 13.9687L56.0156 13.9336V15Z" fill="#263238"/>
<path d="M56.0156 19.043V20.0391H57.0117H58.0078V19.043V18.0469H57.0117H56.0156V19.043Z" fill="#263238"/>
<path d="M56.0156 23.0273V24.0234H57.0117H58.0078V23.0273V22.0312H57.0117H56.0156V23.0273Z" fill="#263238"/>
<path d="M56.0156 27.0117V28.0078H57.0117H58.0078V27.0117V26.0156H57.0117H56.0156V27.0117Z" fill="#263238"/>
<path d="M1.99219 29.0039V30H2.98828H3.98438V29.0039V28.0078H2.98828H1.99219V29.0039Z" fill="#263238"/>
<path d="M5.97656 29.0039V30H6.97266H7.96875V29.0039V28.0078H6.97266H5.97656V29.0039Z" fill="#263238"/>
<path d="M52.0312 30.9961V31.9922H53.0273H54.0234V30.9961V30H53.0273H52.0312V30.9961Z" fill="#263238"/>
<path d="M56.0156 30.9961V31.9922H57.0117H58.0078V30.9961V30H57.0117H56.0156V30.9961Z" fill="#263238"/>
<path d="M1.99219 32.9883V33.9844H2.98828H3.98438V32.9883V31.9922H2.98828H1.99219V32.9883Z" fill="#263238"/>
<path d="M1.99219 36.9727V37.9688H2.98828H3.98438V36.9727V35.9766H2.98828H1.99219V36.9727Z" fill="#263238"/>
<path d="M1.99219 40.957V41.9531H2.98828H3.98438V40.957V39.9609H2.98828H1.99219V40.957Z" fill="#263238"/>
<path d="M2.03856 44.0976C2.0034 44.1914 1.99169 44.6484 2.01512 45.1289L2.05028 45.9961L3.02294 46.0312L3.98387 46.0664V45V43.9453H3.04637C2.36669 43.9453 2.08544 43.9922 2.03856 44.0976Z" fill="#263238"/>
<path d="M1.99219 49.043V50.0391H2.98828H3.98438V49.043V48.0469H2.98828H1.99219V49.043Z" fill="#263238"/>
<path d="M2.78906 52.1836C1.60547 52.6289 0.832031 53.332 0.316406 54.457C-0.046875 55.2539 -0.046875 56.7773 0.316406 57.5625C0.667969 58.3359 1.54688 59.2383 2.33203 59.6133C2.89453 59.8945 3.14062 59.9414 3.98438 59.9414C4.81641 59.9414 5.08594 59.8945 5.63672 59.6367C6.44531 59.25 7.14844 58.5703 7.58203 57.75C7.875 57.1992 7.91016 57 7.91016 56.0156C7.91016 55.0898 7.86328 54.8086 7.64062 54.3516C7.23047 53.5313 6.51562 52.7813 5.77734 52.4297C4.99219 52.043 3.50391 51.9258 2.78906 52.1836ZM5.13281 54.3633C6.33984 55.2188 6.19922 57.1289 4.88672 57.7617C4.05469 58.1602 3.30469 58.0547 2.64844 57.4453C1.6875 56.543 1.83984 55.0078 2.96484 54.3164C3.59766 53.9297 4.55859 53.9531 5.13281 54.3633Z" fill="#FB5D1E"/>
<path d="M28.0078 53.0273V54.0234H29.0039H30V53.0273V52.0312H29.0039H28.0078V53.0273Z" fill="#263238"/>
<path d="M54.7728 52.1953C54.5033 52.2773 54.0463 52.5234 53.7416 52.7227C51.1752 54.4922 51.5619 58.3477 54.4447 59.6719C55.3236 60.082 56.7767 60.0586 57.6673 59.6133C58.4525 59.2383 59.3314 58.3359 59.683 57.5625C60.0462 56.7656 60.0462 55.2422 59.6712 54.4453C59.2728 53.5547 58.6869 52.9336 57.8666 52.5C57.2337 52.1602 56.9877 52.1016 56.1908 52.0664C55.6283 52.043 55.0658 52.1016 54.7728 52.1953ZM57.0228 54.3164C58.1595 54.9844 58.3236 56.5312 57.3509 57.4453C56.6947 58.0547 55.9447 58.1602 55.1127 57.7617C54.3744 57.4102 53.9759 56.6836 54.0463 55.8398C54.1752 54.3398 55.7103 53.5547 57.0228 54.3164Z" fill="#FB5D1E"/>
<path d="M28.0078 57.0117V58.0078H29.0039H30V57.0117V56.0156H29.0039H28.0078V57.0117Z" fill="#263238"/>
<path d="M31.9922 57.0117V58.0078H32.9883H33.9844V57.0117V56.0156H32.9883H31.9922V57.0117Z" fill="#263238"/>
<path d="M35.9766 57.0117V58.0078H36.9727H37.9688V57.0117V56.0156H36.9727H35.9766V57.0117Z" fill="#263238"/>
<path d="M39.9609 57.0117V58.0078H40.957H41.9531V57.0117V56.0156H40.957H39.9609V57.0117Z" fill="#263238"/>
<path d="M43.9687 56.9766L44.0039 57.9492H45H45.9961L46.0312 56.9766L46.0664 56.0156H45H43.9336L43.9687 56.9766Z" fill="#263238"/>
<path d="M48.0469 57.0117V58.0078H49.043H50.0391V57.0117V56.0156H49.043H48.0469V57.0117Z" fill="#263238"/>
</svg>
