<svg width="60" height="60" viewBox="0 0 60 60" fill="none" xmlns="http://www.w3.org/2000/svg">
<path d="M3.58594 0.128906C2.85938 0.304688 1.79297 0.925781 1.27734 1.48828C1.01953 1.76953 0.632812 2.35547 0.433594 2.78906L0.0585938 3.57422V24.3867V45.1875L0.492188 46.0781C1.01953 47.1445 1.69922 47.8008 2.78906 48.3164L3.57422 48.6914L11.0273 48.7266L18.4805 48.7617L18.2461 49.7344C18.0117 50.6719 17.9883 50.7188 17.5664 50.9062C16.9922 51.1641 16.2539 51.9961 16.0781 52.5938C15.9961 52.8516 15.9375 53.6484 15.9375 54.3633C15.9375 55.5938 15.9492 55.6875 16.2305 55.957L16.5117 56.25H21.3867H26.25V55.3125V54.375H22.0312H17.8125V53.7305C17.8125 53.1914 17.8594 53.0273 18.1055 52.793L18.3867 52.5H22.3242H26.25V51.5625V50.625H23.0977H19.9453L20.1797 49.6875L20.4141 48.75H23.332H26.25V47.8125V46.875H15.2812C7.00781 46.875 4.18359 46.8398 3.82031 46.7344C3.17578 46.5469 2.20312 45.5742 2.01562 44.9297C1.93359 44.6484 1.875 43.7578 1.875 42.8438V41.25H14.0625H26.25V40.3125V39.375H14.0625H1.875V21.8438C1.875 8.41406 1.91016 4.19531 2.01562 3.82031C2.20312 3.17578 3.17578 2.20312 3.82031 2.01562C4.08984 1.93359 4.81641 1.875 5.4375 1.875H6.5625V0.9375V0L5.30859 0.0117188C4.60547 0.0234375 3.84375 0.0703125 3.58594 0.128906Z" fill="#263238"/>
<path d="M8.4375 0.9375V1.875H9.375H10.3125V0.9375V0H9.375H8.4375V0.9375Z" fill="#263238"/>
<path d="M12.1875 0.9375V1.875H33.9375C50.6836 1.875 55.8047 1.91016 56.1797 2.01562C56.8242 2.20312 57.7969 3.17578 57.9844 3.82031C58.1836 4.52344 58.1836 44.2266 57.9844 44.9297C57.832 45.4453 56.7539 46.6406 56.4375 46.6406C56.2734 46.6406 56.25 45.082 56.2266 31.6758L56.1914 16.6992L55.8164 15.9141C55.3008 14.8242 54.6445 14.1445 53.5781 13.6172L52.6875 13.1836H42.1992H31.6992L30.9141 13.5586C29.8242 14.0742 29.1445 14.7305 28.6172 15.7969L28.1836 16.6875V36.5625V56.4375L28.6172 57.3281C29.1445 58.3945 29.8242 59.0508 30.9141 59.5664L31.6992 59.9414H42.1875H52.6758L53.4609 59.5664C54.5508 59.0508 55.2305 58.3945 55.7578 57.3281L56.1914 56.4375L56.2266 52.5352C56.2617 49.418 56.2969 48.6328 56.4141 48.6328C56.4961 48.6328 56.9414 48.4453 57.3867 48.2227C58.3945 47.7188 59.0742 47.0156 59.5664 45.9609L59.9414 45.1758V24.375V3.57422L59.5664 2.78906C59.0508 1.69922 58.3945 1.01953 57.3281 0.492188L56.4375 0.0585938L34.3125 0.0234375L12.1875 0V0.9375ZM52.4297 15.1406C53.0742 15.3281 54.0469 16.3008 54.2344 16.9453C54.5039 17.8828 54.7266 17.8125 51.3867 17.8125H48.3867L48.1055 18.1055C47.918 18.2812 47.8125 18.5273 47.8125 18.75C47.8125 19.3242 47.5781 20.1094 47.332 20.3789C47.1094 20.625 47.0156 20.625 42.1875 20.625C37.3594 20.625 37.2656 20.625 37.043 20.3789C36.7969 20.1094 36.5625 19.3242 36.5625 18.75C36.5625 18.5273 36.457 18.2812 36.2695 18.1055L35.9883 17.8125H32.9883C29.6484 17.8125 29.8711 17.8828 30.1406 16.9453C30.3164 16.3477 31.3008 15.3398 31.875 15.1523C32.4844 14.9648 51.7734 14.9531 52.4297 15.1406ZM34.8633 20.0625C35.0859 21.0586 35.7891 21.9844 36.5859 22.3125C37.2422 22.5938 47.1328 22.5938 47.7891 22.3125C48.5859 21.9844 49.2891 21.0586 49.5117 20.0625L49.5938 19.6875H51.9844H54.375V36.0938V52.5H42.1875H30V36.0938V19.6875H32.3906H34.7812L34.8633 20.0625ZM54.375 55.0312C54.375 55.3945 54.3164 55.9102 54.2344 56.1797C54.0469 56.8242 53.0742 57.7969 52.4297 57.9844C51.7383 58.1836 32.6367 58.1836 31.9453 57.9844C31.3008 57.7969 30.3281 56.8242 30.1406 56.1797C30.0586 55.9102 30 55.3945 30 55.0312V54.375H42.1875H54.375V55.0312Z" fill="#263238"/>
<path d="M38.4375 17.8125V18.75H42.1875H45.9375V17.8125V16.875H42.1875H38.4375V17.8125Z" fill="#FB5D1E"/>
<path d="M40.3715 26.414C36.6918 27.1171 33.6098 29.7656 32.4613 33.1991C30.2699 39.703 34.7465 46.3945 41.5902 46.8398C46.4535 47.1562 50.8715 43.9218 52.184 39.082C52.5238 37.828 52.5356 35.3788 52.2191 34.1718C51.1996 30.3281 48.516 27.621 44.7074 26.5781C43.6293 26.2851 41.473 26.2031 40.3715 26.414ZM44.7074 28.5234C46.0316 28.9452 47.0277 29.5663 48.1059 30.6445C49.641 32.1796 50.4379 33.8906 50.5902 35.9648C50.9418 41.0507 46.7231 45.2929 41.6254 44.953C40.3715 44.8827 38.9535 44.4491 37.8754 43.8163C36.973 43.2773 35.4379 41.7187 34.8871 40.7812C34.641 40.3593 34.3129 39.5976 34.1371 39.082C33.8793 38.2851 33.8324 37.9335 33.8207 36.6796C33.809 34.9452 33.9848 34.1601 34.7113 32.6952C35.5668 30.9726 37.4535 29.2968 39.2582 28.6406C40.934 28.0429 43.0551 27.996 44.7074 28.5234Z" fill="#FB5D1E"/>
<path d="M42.9258 32.6016L40.3242 35.2031L39.5625 34.4766C38.4141 33.375 38.4141 33.375 36.3633 35.4258C34.8516 36.9258 34.6875 37.1367 34.6875 37.5C34.6875 37.875 34.9102 38.1211 37.3008 40.5117C39.6914 42.9141 39.9375 43.125 40.3125 43.125C40.6875 43.125 41.0273 42.8086 45.1992 38.6367C49.3711 34.4766 49.6875 34.125 49.6875 33.75C49.6875 33.3867 49.5234 33.1758 48.0117 31.6758C46.5117 30.1758 46.3008 30 45.9375 30C45.5742 30 45.3047 30.2344 42.9258 32.6016ZM46.6992 33.0469L47.4023 33.75L43.8516 37.3008L40.3125 40.8398L38.6484 39.1641L36.9727 37.5L37.6992 36.7734L38.4258 36.0469L39.1875 36.7734C40.3828 37.9219 40.2188 37.9922 43.3008 34.9219C44.7188 33.5039 45.9023 32.3438 45.9375 32.3438C45.9727 32.3438 46.3125 32.6602 46.6992 33.0469Z" fill="#FB5D1E"/>
<path d="M38.4375 56.25V57.1875H42.1875H45.9375V56.25V55.3125H42.1875H38.4375V56.25Z" fill="#263238"/>
<path d="M12.4805 4.04297C12.2227 4.28906 12.1875 4.42969 12.1875 5.19141V6.05859L11.4023 6.36328L10.6172 6.67969L9.99609 6.07031C9.04688 5.13281 8.96484 5.16797 7.06641 7.06641C5.16797 8.96484 5.13281 9.04688 6.07031 9.99609L6.67969 10.6172L6.36328 11.4023L6.05859 12.1875H5.19141C4.42969 12.1875 4.28906 12.2227 4.04297 12.4805C3.75 12.7617 3.75 12.7852 3.75 15C3.75 17.2148 3.75 17.2383 4.04297 17.5195C4.28906 17.7773 4.42969 17.8125 5.19141 17.8125H6.05859L6.36328 18.5977L6.67969 19.3828L6.07031 20.0039C5.13281 20.9531 5.16797 21.0352 7.06641 22.9336C8.96484 24.832 9.04688 24.8672 9.99609 23.9297L10.6172 23.3203L11.4023 23.6367L12.1875 23.9414V24.8086C12.1875 25.5703 12.2227 25.7109 12.4805 25.957C12.7617 26.25 12.7852 26.25 15 26.25C17.2148 26.25 17.2383 26.25 17.5195 25.957C17.7773 25.7109 17.8125 25.5703 17.8125 24.8086V23.9414L18.5977 23.6367L19.3828 23.3203L20.0039 23.9297C20.9531 24.8672 21.0352 24.832 22.9336 22.9336C24.832 21.0352 24.8672 20.9531 23.9297 20.0039L23.3203 19.3828L23.6367 18.5977L23.9414 17.8125H24.8086C25.5703 17.8125 25.7109 17.7773 25.957 17.5195C26.25 17.2383 26.25 17.2148 26.25 15C26.25 12.7852 26.25 12.7617 25.957 12.4805C25.7109 12.2227 25.5703 12.1875 24.8086 12.1875H23.9414L23.6367 11.4023L23.3203 10.6172L23.9297 9.99609C24.8672 9.04688 24.832 8.96484 22.9336 7.06641C21.0352 5.16797 20.9531 5.13281 20.0039 6.07031L19.3828 6.67969L18.5977 6.36328L17.8125 6.05859V5.19141C17.8125 4.42969 17.7773 4.28906 17.5195 4.04297C17.2383 3.75 17.2148 3.75 15 3.75C12.7852 3.75 12.7617 3.75 12.4805 4.04297ZM15.9375 6.36328C15.9375 7.30078 16.1133 7.5 17.1914 7.85156C17.625 7.99219 18.2695 8.26172 18.5977 8.44922C19.4531 8.91797 19.6992 8.89453 20.4023 8.23828L20.9883 7.6875L21.6445 8.35547L22.3125 9.01172L21.7617 9.59766C21.1055 10.3008 21.082 10.5469 21.5508 11.4023C21.7383 11.7305 22.0078 12.375 22.1484 12.8086C22.5 13.8867 22.6992 14.0625 23.6367 14.0625H24.375V15V15.9375H23.6367C22.6992 15.9375 22.5 16.1133 22.1484 17.1914C22.0078 17.625 21.7383 18.2695 21.5508 18.5977C21.082 19.4531 21.1055 19.6992 21.7617 20.4023L22.3125 20.9883L21.6445 21.6445L20.9883 22.3125L20.4023 21.7617C19.6992 21.1055 19.4531 21.082 18.5977 21.5508C18.2695 21.7383 17.625 22.0078 17.1914 22.1484C16.1133 22.5 15.9375 22.6992 15.9375 23.6367V24.375H15H14.0625V23.6367C14.0625 22.6992 13.8867 22.5 12.8086 22.1484C12.375 22.0078 11.7305 21.7383 11.4023 21.5508C10.5469 21.082 10.3008 21.1055 9.59766 21.7617L9.01172 22.3125L8.35547 21.6445L7.6875 20.9883L8.23828 20.4023C8.89453 19.6992 8.91797 19.4531 8.44922 18.5977C8.26172 18.2695 7.99219 17.625 7.85156 17.1914C7.5 16.1133 7.30078 15.9375 6.36328 15.9375H5.625V15V14.0625H6.36328C7.30078 14.0625 7.5 13.8867 7.85156 12.8086C7.99219 12.375 8.26172 11.7305 8.44922 11.4023C8.91797 10.5469 8.89453 10.3008 8.23828 9.59766L7.6875 9.01172L8.35547 8.35547L9.01172 7.6875L9.59766 8.23828C10.3008 8.89453 10.5469 8.91797 11.4023 8.44922C11.7305 8.26172 12.375 7.99219 12.8086 7.85156C13.8867 7.5 14.0625 7.30078 14.0625 6.36328V5.625H15H15.9375V6.36328Z" fill="#FB5D1E"/>
<path d="M13.8984 10.4297C13.1602 10.6172 12.1055 11.25 11.5898 11.8008C11.332 12.082 10.9453 12.668 10.7461 13.1016C10.4062 13.8164 10.3711 13.9922 10.3711 15.0117C10.3711 16.0664 10.3945 16.1719 10.8047 17.0156C11.332 18.082 12.0117 18.7383 13.1016 19.2539C13.8164 19.5938 13.9922 19.6289 15 19.6289C16.0078 19.6289 16.1836 19.5938 16.8984 19.2539C17.9883 18.7383 18.668 18.082 19.1953 17.0156C19.6055 16.1719 19.6289 16.0664 19.6289 15C19.6289 13.9336 19.6055 13.8281 19.1953 12.9844C18.3984 11.3906 16.9922 10.4414 15.2578 10.3594C14.7656 10.3359 14.1562 10.3711 13.8984 10.4297ZM15.8672 12.3281C16.875 12.6328 17.8125 13.9219 17.8125 15C17.8125 16.0781 16.875 17.3672 15.8672 17.6719C14.7656 18 13.8867 17.7656 13.0664 16.9336C11.8711 15.75 11.8711 14.25 13.0664 13.0664C13.8867 12.2344 14.7656 12.0117 15.8672 12.3281Z" fill="#FB5D1E"/>
<path d="M39.375 4.6875V5.625H45.4688H51.5625V4.6875V3.75H45.4688H39.375V4.6875Z" fill="#263238"/>
<path d="M53.4375 4.6875V5.625H54.375H55.3125V4.6875V3.75H54.375H53.4375V4.6875Z" fill="#263238"/>
<path d="M22.793 25.6055C22.5352 25.8516 22.5 25.9922 22.5 26.7539V27.6211L21.7148 27.9258L20.9297 28.2422L20.3086 27.6328C19.3594 26.6953 19.2773 26.7305 17.3789 28.6289C15.4805 30.5273 15.4453 30.6094 16.3828 31.5586L16.9922 32.1797L16.6758 32.9648L16.3711 33.75H15.5039C14.7422 33.75 14.6016 33.7852 14.3555 34.043C14.0625 34.3242 14.0625 34.3594 14.0625 36.3867V38.4375H15H15.9375V37.0312V35.625H16.6758C17.6133 35.625 17.8125 35.4492 18.1641 34.3711C18.3047 33.9375 18.5742 33.293 18.7617 32.9648C19.2305 32.1094 19.207 31.8633 18.5508 31.1602L18 30.5742L18.668 29.918L19.3242 29.25L19.9102 29.8008C20.6133 30.457 20.8594 30.4805 21.7148 30.0117C22.043 29.8242 22.6875 29.5547 23.1211 29.4141C24.1992 29.0625 24.375 28.8633 24.375 27.9258V27.1875H25.7812H27.1875V26.25V25.3125H25.1367C23.1094 25.3125 23.0742 25.3125 22.793 25.6055Z" fill="#263238"/>
<path d="M24.2109 32.0039C23.4844 32.1797 22.418 32.8008 21.9023 33.3633C21.3164 34.0078 20.7773 35.1328 20.6719 35.9414L20.5898 36.5625H21.5156H22.4414L22.582 35.9648C22.8398 34.9102 23.6602 34.0898 24.7148 33.832L25.3125 33.6914V32.7891V31.875L24.9961 31.8867C24.8086 31.8984 24.4687 31.9453 24.2109 32.0039Z" fill="#263238"/>
<path d="M3.75 44.0625V45H4.6875H5.625V44.0625V43.125H4.6875H3.75V44.0625Z" fill="#FB5D1E"/>
<path d="M7.5 44.0625V45H10.3125H13.125V44.0625V43.125H10.3125H7.5V44.0625Z" fill="#FB5D1E"/>
</svg>
