<svg width="60" height="60" viewBox="0 0 60 60" fill="none" xmlns="http://www.w3.org/2000/svg">
<path d="M58.3594 22.7344C57.9375 22.3828 57.5156 22.125 57.1172 21.9375C56.6016 21.7031 56.3672 21.3281 56.3672 20.7422C56.3906 19.2656 56.3906 17.6484 56.3672 15.7969C56.3438 12.7969 54.3047 10.7578 51.2812 10.7344C51.1172 10.7344 50.9766 10.7344 50.8125 10.7344C50.3203 10.7344 49.7812 10.7109 49.2891 10.7578C48.6094 10.8047 48.1875 10.4766 47.9062 10.1953C46.5 8.76562 45.0703 7.35937 43.6406 5.92969C41.9297 4.21875 40.1719 2.46094 38.4375 0.703125C37.9688 0.234375 37.4766 0.0234375 36.8203 0.0234375C30.6563 0.0234375 24.375 0.0234375 18.2812 0H12.4219C11.1562 0 10.7344 0.398437 10.7344 1.6875C10.7344 3.51562 10.7344 5.36719 10.7344 7.19531V10.7344H10.2188C10.0312 10.7344 9.86719 10.7344 9.67969 10.7344C9.30469 10.7344 8.95312 10.7344 8.60156 10.7344C5.67188 10.7812 3.60938 12.8437 3.58594 15.75C3.5625 17.3437 3.5625 18.9609 3.58594 20.6953C3.58594 21.1172 3.49219 21.6094 2.83594 21.9375C1.17188 22.7344 0.234375 24.0469 0.0234375 25.9219C0 26.1094 0 26.3203 0 26.5312V31.0781C0 36.5391 0 42.1875 0 47.7422C0 50.2266 1.33594 52.0312 3.65625 52.6641C4.17188 52.8047 4.73438 52.8281 5.22656 52.8281C6.39844 52.8516 7.54688 52.8516 8.76562 52.8281C9.23438 52.8281 9.72656 52.8281 10.1953 52.8281H10.7109V53.3437C10.7109 53.8359 10.7109 54.3047 10.7109 54.7969C10.7109 55.9453 10.7344 57.0234 10.6875 58.125C10.6406 59.0859 10.9219 59.625 11.6016 59.9766H48.3047C49.0078 59.625 49.2656 59.0859 49.2188 58.125C49.1719 57.0234 49.1953 55.9453 49.1953 54.7969C49.1953 54.3281 49.1953 53.8359 49.1953 53.3437V52.8281H49.7109C50.1328 52.8281 50.5312 52.8281 50.9297 52.8281C51.8672 52.8281 52.7578 52.8281 53.6484 52.8047C53.8125 52.8047 53.9766 52.8047 54.1406 52.8047C54.8672 52.7812 55.6406 52.7812 56.2969 52.6172C58.2422 52.1016 59.4375 50.7891 59.8125 48.7031C59.8359 48.6094 59.8594 48.5391 59.8828 48.4687V25.6406C59.625 24.2578 59.1328 23.3672 58.3594 22.7344ZM49.2891 13.2656H49.8047C49.9922 13.2656 50.2031 13.2656 50.3906 13.2656C50.8359 13.2656 51.2344 13.2656 51.6562 13.2656C52.8516 13.3359 53.7891 14.2031 53.8359 15.3281C53.8828 16.6406 53.8594 17.9766 53.8594 19.2656C53.8594 19.8047 53.8594 20.3437 53.8594 20.8828V21.3984H49.2891V13.2656ZM38.5547 4.54687L44.6719 10.6875H38.5547V4.54687ZM13.3125 2.55469H36V6.02344C36 7.89844 36 9.77344 36 11.6484C36 12.7969 36.4453 13.2422 37.5938 13.2422C39.4219 13.2422 41.2734 13.2422 43.1016 13.2422H46.6875V21.3984H13.3125V2.55469ZM6.11719 15.8437C6.11719 14.2031 7.03125 13.2891 8.69531 13.2891C9.02344 13.2891 9.35156 13.2891 9.67969 13.2891H10.6875V21.4687H6.1875L6.16406 20.9766C6.16406 20.9297 6.16406 20.8828 6.14062 20.8359C6.14062 20.7187 6.11719 20.5781 6.11719 20.4375V20.3906C6.11719 18.8906 6.09375 17.3437 6.11719 15.8437ZM46.6875 57.4453H13.2891V38.6016H46.6875V57.4453ZM57.4453 47.8125C57.4453 49.3359 56.5078 50.2969 54.9844 50.3203C53.7891 50.3203 52.6172 50.3203 51.3984 50.3203C50.8828 50.3203 50.3438 50.3203 49.8047 50.3203H49.2891V38.5547H49.8047C49.9922 38.5547 50.1562 38.5547 50.3438 38.5547C50.7422 38.5547 51.0938 38.5547 51.4688 38.5547C52.2891 38.5312 52.8516 38.0156 52.8281 37.2656C52.8281 36.5391 52.2656 36.0234 51.4688 36.0234C49.4297 36.0234 47.3672 36.0234 45.3516 36.0234C44.5781 36.0234 43.7812 36.0234 43.0078 36.0234H8.88281C8.74219 36.0234 8.60156 36.0234 8.48438 36.0234C7.71094 36.0469 7.14844 36.5859 7.17188 37.3125C7.17188 38.0156 7.73437 38.5312 8.46094 38.5547C8.83594 38.5547 9.23438 38.5547 9.63281 38.5547C9.82031 38.5547 10.0078 38.5547 10.1953 38.5547H10.7109V50.2266L10.2422 50.2734C10.1953 50.2734 10.1719 50.2734 10.125 50.2969C10.0312 50.3203 9.91406 50.3203 9.77344 50.3203H9.14062C8.41406 50.3203 7.66406 50.3203 6.91406 50.3203C6.28125 50.3203 5.64844 50.3203 4.99219 50.3203C3.46875 50.3203 2.50781 49.3594 2.50781 47.8359C2.50781 40.7344 2.50781 33.5625 2.50781 26.5078C2.50781 24.9844 3.46875 24.0234 4.99219 24.0234C21.6328 24.0234 38.2734 24.0234 54.9141 24.0234C56.4609 24.0234 57.4219 24.9844 57.4219 26.5078C57.4453 33.2109 57.4453 40.1953 57.4453 47.8125Z" fill="#263238"/>
<path d="M11.9529 28.6171C11.5779 28.5937 11.1794 28.6171 10.781 28.6171C10.5935 28.6171 10.406 28.6171 10.2419 28.6171C10.0544 28.6171 9.86692 28.6171 9.70285 28.6171C9.51535 28.6171 9.32785 28.6171 9.14035 28.6171C8.92942 28.6171 8.69504 28.6171 8.4841 28.6171C7.71067 28.6405 7.14817 29.1796 7.1716 29.8827C7.1716 30.5859 7.7341 31.1249 8.46067 31.1249C9.72629 31.1484 10.8982 31.1484 12.0232 31.1249C12.7497 31.1015 13.2888 30.5624 13.2888 29.8593C13.2419 29.1796 12.7029 28.6405 11.9529 28.6171Z" fill="#FB5D1E"/>
<path d="M19.2661 45.6797C21.7973 45.6797 24.3754 45.6797 26.8598 45.6797C27.8911 45.6797 28.9223 45.6797 29.9301 45.6797H35.6489C35.6723 45.6797 35.6958 45.6797 35.7192 45.6797C36.1879 45.6797 36.6801 45.6797 37.1489 45.6797C38.3442 45.6797 39.6098 45.6797 40.8286 45.6797C41.5551 45.6797 42.0942 45.1406 42.0942 44.4141C42.0942 43.7109 41.5551 43.1953 40.8051 43.1484C40.688 43.1484 40.5942 43.1484 40.477 43.1484H40.3598H19.6176C19.5708 43.1484 19.5239 43.1484 19.4536 43.1484C19.3129 43.1484 19.1958 43.1484 19.0786 43.1484C18.5161 43.1953 18.1645 43.4531 17.977 43.9688C17.8129 44.3672 17.8598 44.7656 18.0942 45.0937C18.3286 45.4687 18.7504 45.6797 19.2661 45.6797Z" fill="#FB5D1E"/>
<path d="M40.8051 50.3203C40.688 50.3203 40.5942 50.3203 40.477 50.3203H40.3598H19.6176C19.5708 50.3203 19.5239 50.3203 19.4536 50.3203C19.3129 50.3203 19.1958 50.3203 19.0786 50.3203C18.5161 50.3672 18.1645 50.6484 17.977 51.1406C17.8129 51.5391 17.8598 51.9375 18.0942 52.2656C18.352 52.6406 18.7739 52.8516 19.2895 52.8516C21.8442 52.8516 24.4223 52.8516 26.9301 52.8516C27.9614 52.8516 28.9926 52.8516 30.0239 52.8516H35.6255C35.6489 52.8516 35.6723 52.8516 35.6958 52.8516C36.188 52.8516 36.6567 52.8516 37.1489 52.8516C38.3676 52.8516 39.6333 52.8516 40.8754 52.8516C41.602 52.8516 42.1411 52.3125 42.1411 51.5859C42.0942 50.8828 41.5551 50.3437 40.8051 50.3203Z" fill="#FB5D1E"/>
</svg>
