<svg width="60" height="60" viewBox="0 0 60 60" fill="none" xmlns="http://www.w3.org/2000/svg">
<path d="M5.16797 1.125C3.1875 1.65234 1.64063 3.23438 1.11328 5.23828C0.84375 6.24609 0.84375 53.7539 1.11328 54.7617C1.64063 56.7891 3.19922 58.3594 5.21484 58.8867C6.25781 59.1562 27.4922 59.1562 28.5352 58.8867C30.5508 58.3594 32.1094 56.7891 32.6367 54.7617C32.7891 54.1992 32.8125 52.7227 32.8125 45.3281V36.5625H38.1445H43.4883L43.7695 36.2695L44.0625 35.9883V30.4336V24.8789L44.6836 25.0547C45.5742 25.3008 48.1406 25.3125 49.043 25.0547C51.5508 24.3633 53.4023 23.0508 54.7383 21C55.7695 19.4297 56.1914 17.9766 56.1914 15.9375C56.1914 13.8984 55.7695 12.4453 54.7383 10.875C51.4336 5.82422 44.4375 5.10938 40.2188 9.38672C39.2344 10.3711 38.4258 11.7188 38.0156 13.0078L37.6758 14.0625H35.25H32.8125V9.98438C32.8125 6.70312 32.7773 5.77734 32.6367 5.21484C32.1094 3.19922 30.5391 1.64062 28.5117 1.11328C27.5273 0.855469 6.12891 0.867188 5.16797 1.125ZM28.7813 3.1875C29.6719 3.65625 30.0352 4.00781 30.4688 4.82812C30.8438 5.53125 30.8672 5.63672 30.9141 6.99609L30.9609 8.4375H16.875H2.78906L2.83594 6.99609C2.88281 5.80078 2.92969 5.47266 3.17578 4.98047C3.65625 3.97266 4.61719 3.17578 5.68359 2.91797C5.88281 2.87109 11.0156 2.84766 17.1094 2.84766L28.1836 2.87109L28.7813 3.1875ZM48.457 8.61328C50.9883 9.14062 53.25 11.2266 54.0586 13.7695C54.4219 14.9297 54.4219 16.9453 54.0586 18.1055C53.3203 20.4375 51.375 22.3828 49.043 23.1211C47.8828 23.4844 45.8672 23.4844 44.707 23.1211C41.5781 22.125 39.375 19.1602 39.375 15.9375C39.375 13.1719 41.0156 10.5117 43.4766 9.28125C45.082 8.47266 46.7344 8.25 48.457 8.61328ZM30.9375 12.1875V14.0625H25.6055H20.2617L19.9805 14.3555L19.6875 14.6367V25.3125V35.9883L19.9805 36.2695L20.2617 36.5625H25.6055H30.9375V41.25V45.9375H16.875H2.8125V28.125V10.3125H16.875H30.9375V12.1875ZM28.125 20.332V24.7383L28.418 25.0195C28.5938 25.207 28.8281 25.3125 29.0742 25.3125C29.3906 25.3125 29.6367 25.125 30.6563 24.1172L31.875 22.9219L33.0938 24.1172C34.1133 25.125 34.3594 25.3125 34.6758 25.3125C34.9219 25.3125 35.1563 25.207 35.332 25.0195L35.625 24.7383V20.332V15.9375H36.5625H37.5V16.3359C37.5 16.9102 37.793 18.3398 38.0859 19.1602C38.6367 20.7422 40.1016 22.6289 41.5664 23.6367L42.1875 24.0586V27.5039V30.9375H31.875H21.5625V23.4375V15.9375H24.8438H28.125V20.332ZM33.75 19.0078V22.0664L33 21.3516C32.4023 20.7773 32.168 20.625 31.875 20.625C31.582 20.625 31.3477 20.7773 30.75 21.3516L30 22.0664V19.0078V15.9375H31.875H33.75V19.0078ZM42.1875 33.75V34.6875H31.875H21.5625V33.75V32.8125H31.875H42.1875V33.75ZM30.9141 51.1172L30.8789 54.4336L30.4805 55.1719C30.0352 55.9922 29.6719 56.3438 28.7813 56.8125L28.1836 57.1289H16.875H5.56641L4.96875 56.8125C4.07813 56.3438 3.71484 55.9922 3.26953 55.1719L2.87109 54.4336L2.83594 51.1172L2.80078 47.8125H16.875H30.9492L30.9141 51.1172Z" fill="#263238"/>
<path d="M14.0625 5.625V6.5625H16.875H19.6875V5.625V4.6875H16.875H14.0625V5.625Z" fill="#263238"/>
<path d="M47.4375 14.965L45 17.4025L44.4375 16.84C44.1328 16.5353 43.8281 16.2892 43.7578 16.2892C43.6055 16.2892 42.5391 17.379 42.5391 17.5314C42.5391 17.6017 43.0078 18.1056 43.582 18.6681C45.1172 20.1681 44.7891 20.297 48.3047 16.7931C49.8984 15.1993 51.2109 13.84 51.2109 13.7696C51.2109 13.6173 50.1328 12.5392 49.9805 12.5392C49.9102 12.5392 48.7734 13.629 47.4375 14.965Z" fill="#FB5D1E"/>
<path d="M8.91825 16.125C7.96903 16.3828 7.17216 16.8516 6.387 17.6367C4.92216 19.1016 4.41825 20.8945 4.86356 23.0039C5.10966 24.1992 5.49638 24.8672 7.72294 27.9844C9.16435 30 9.83232 30.8438 10.0315 30.8906C10.6643 31.0547 10.8167 30.9024 12.9026 27.9844C15.1292 24.8672 15.5159 24.1992 15.762 23.0039C16.0784 21.5391 15.9026 20.1211 15.2581 18.9375C14.8479 18.1758 13.6995 17.0274 12.9378 16.6172C11.719 15.961 10.2073 15.7735 8.91825 16.125ZM11.7425 18.1406C12.5042 18.4688 13.3011 19.2422 13.6761 20.0274C14.1214 20.9297 14.1331 22.336 13.6995 23.3555C13.4534 23.9531 10.4651 28.3477 10.3128 28.3477C10.1604 28.3477 7.17216 23.9531 6.93778 23.3789C6.78544 23.0156 6.64482 22.3945 6.59794 21.9961C6.34013 19.1836 9.22294 17.0274 11.7425 18.1406Z" fill="#FB5D1E"/>
<path d="M9.375 33.75V34.6875H10.3125H11.25V33.75V32.8125H10.3125H9.375V33.75Z" fill="#263238"/>
<path d="M9.375 37.5V38.4375H10.3125H11.25V37.5V36.5625H10.3125H9.375V37.5Z" fill="#263238"/>
<path d="M9.375 41.25V42.1875H10.3125H11.25V41.25V40.3125H10.3125H9.375V41.25Z" fill="#263238"/>
<path d="M13.125 41.25V42.1875H14.0625H15V41.25V40.3125H14.0625H13.125V41.25Z" fill="#263238"/>
<path d="M16.875 41.25V42.1875H17.8125H18.75V41.25V40.3125H17.8125H16.875V41.25Z" fill="#263238"/>
<path d="M20.625 41.25V42.1875H21.5625H22.5V41.25V40.3125H21.5625H20.625V41.25Z" fill="#263238"/>
<path d="M24.375 41.25V42.1875H25.3125H26.25V41.25V40.3125H25.3125H24.375V41.25Z" fill="#263238"/>
<path d="M28.125 41.25V42.1875H29.0625H30V41.25V40.3125H29.0625H28.125V41.25Z" fill="#263238"/>
<path d="M15.9376 49.8399C15.3634 50.0274 14.379 51.0352 14.2032 51.6328C13.8751 52.7344 14.1095 53.6133 14.9415 54.4336C16.1251 55.6289 17.6251 55.6289 18.8087 54.4336C19.9572 53.2969 19.9923 51.832 18.9025 50.625C18.1407 49.7813 17.0509 49.4883 15.9376 49.8399ZM17.5197 51.8555C18.1056 52.4297 17.6954 53.4375 16.8751 53.4375C16.3947 53.4375 15.9376 52.9805 15.9376 52.5C15.9376 52.2774 16.0431 52.0313 16.2306 51.8555C16.4064 51.668 16.6525 51.5625 16.8751 51.5625C17.0978 51.5625 17.3439 51.668 17.5197 51.8555Z" fill="#FB5D1E"/>
<path d="M33.75 41.25V42.1875H34.6875H35.625V41.25V40.3125H34.6875H33.75V41.25Z" fill="#263238"/>
<path d="M37.5 41.25V42.1875H38.4375H39.375V41.25V40.3125H38.4375H37.5V41.25Z" fill="#263238"/>
<path d="M52.0432 42.375C51.094 42.6328 50.2972 43.1016 49.512 43.8867C48.0472 45.3516 47.5433 47.1445 47.9886 49.2539C48.2347 50.4492 48.6214 51.1172 50.8479 54.2344C52.2893 56.25 52.9573 57.0938 53.1565 57.1406C53.7893 57.3047 53.9417 57.1524 56.0276 54.2344C58.2542 51.1172 58.6409 50.4492 58.887 49.2539C59.2034 47.7891 59.0276 46.3711 58.3831 45.1875C57.9729 44.4258 56.8245 43.2774 56.0628 42.8672C54.844 42.2109 53.3323 42.0234 52.0432 42.375ZM54.8675 44.3906C55.6292 44.7188 56.4261 45.4922 56.8011 46.2774C57.2464 47.1797 57.2581 48.5859 56.8245 49.6055C56.5784 50.2031 53.5901 54.5977 53.4378 54.5977C53.2854 54.5977 50.2972 50.2031 50.0628 49.6289C49.9104 49.2656 49.7698 48.6445 49.7229 48.2461C49.4651 45.4336 52.3479 43.2774 54.8675 44.3906Z" fill="#FB5D1E"/>
<path d="M37.5 45V45.9375H38.4375H39.375V45V44.0625H38.4375H37.5V45Z" fill="#263238"/>
<path d="M37.5 48.75V49.6875H38.4375H39.375V48.75V47.8125H38.4375H37.5V48.75Z" fill="#263238"/>
<path d="M37.5 52.5V53.4375H38.4375H39.375V52.5V51.5625H38.4375H37.5V52.5Z" fill="#263238"/>
<path d="M37.5 56.25V57.1875H38.4375H39.375V56.25V55.3125H38.4375H37.5V56.25Z" fill="#263238"/>
<path d="M41.25 56.25V57.1875H42.1875H43.125V56.25V55.3125H42.1875H41.25V56.25Z" fill="#263238"/>
<path d="M45 56.25V57.1875H45.9375H46.875V56.25V55.3125H45.9375H45V56.25Z" fill="#263238"/>
<path d="M48.75 56.25V57.1875H49.6875H50.625V56.25V55.3125H49.6875H48.75V56.25Z" fill="#263238"/>
</svg>
