<svg width="60" height="60" viewBox="0 0 60 60" fill="none" xmlns="http://www.w3.org/2000/svg">
<path d="M3.73877 0.164066C1.96924 0.656254 0.504399 2.19141 0.129399 3.98438C0.0239301 4.46485 0.00049257 9.78516 0.0239301 25.3711L0.0590863 46.1133L0.340336 46.793C0.855961 48.0938 2.01612 49.2188 3.36377 49.7227L4.04346 49.9805L18.0239 50.0156L31.9927 50.0391V51.832C31.9927 54.8789 32.4966 56.3086 34.0903 57.8906C35.1099 58.9102 36.0122 59.4258 37.3364 59.7656C38.1919 59.9883 38.6606 60 45.9966 60C53.2739 60 53.8013 59.9883 54.6333 59.7773C56.0161 59.4258 56.895 58.9219 57.8911 57.9023C58.9106 56.8828 59.438 55.9688 59.7661 54.6563C59.9888 53.8008 60.0005 53.332 60.0005 45.6914C60.0005 40.2656 59.9653 37.5234 59.8716 37.3008C59.5669 36.5039 58.6997 35.9883 57.6333 35.9766H56.9771L56.9302 32.4961C56.8833 29.0859 56.8716 28.9805 56.5552 27.9492C56.1567 26.6484 55.4653 25.2891 54.645 24.2461L54.0239 23.4375V14.0742C54.0239 8.28516 53.9771 4.48829 53.9067 4.10157C53.5435 2.15625 51.9497 0.527348 50.063 0.12891C49.1021 -0.0703087 4.46534 -0.0351524 3.73877 0.164066ZM50.3442 2.3086C51.0122 2.66016 51.645 3.44532 51.856 4.14844C51.9731 4.53516 52.0317 5.26172 52.0317 6.35157V7.96875H27.0005H1.96924L2.01612 6.0586C2.05127 4.48829 2.08643 4.08985 2.27393 3.75C2.68409 2.96485 3.41065 2.34375 4.21924 2.09766C4.38331 2.05079 14.7192 2.01563 27.188 2.02735L49.8638 2.05079L50.3442 2.3086ZM52.0083 15.9023L52.0317 21.7852L51.0708 21.2695C50.5317 20.9883 49.6294 20.6133 49.0435 20.4375C48.0708 20.1328 47.8364 20.1094 45.9966 20.1094C44.1685 20.1094 43.9224 20.1328 42.9731 20.4258C39.2349 21.5742 36.5747 24.2344 35.4263 27.9727C35.1216 28.9805 35.1099 29.0977 35.063 32.4844L35.0161 35.9766H34.3599C33.2935 35.9883 32.4263 36.5039 32.1216 37.3008C32.0396 37.5234 31.9927 39.4336 31.9927 42.8438V48.0469L18.1411 48.0234L4.27784 47.9883L3.71534 47.707C3.41065 47.5547 2.97706 47.2266 2.7544 46.9688C1.93409 46.0078 1.99268 47.332 1.99268 27.6914V9.96094L26.9888 9.98438L51.9731 10.0195L52.0083 15.9023ZM47.8364 22.207C51.2231 22.9219 53.8481 25.4648 54.7271 28.875C54.938 29.6953 54.9614 30.1758 54.9614 32.8945V35.9766H45.9966H37.0317V32.9531C37.0317 29.7188 37.1255 28.9805 37.6528 27.6563C38.1333 26.4727 38.6841 25.6523 39.6685 24.668C40.981 23.3672 42.3872 22.582 44.1099 22.207C45.0591 21.9961 46.8638 21.9961 47.8364 22.207ZM58.0083 38.9531V39.9492L56.2974 39.9844C54.5864 40.0195 54.5864 40.0195 54.3052 40.3477C53.9419 40.7813 53.9419 41.2969 54.3169 41.6602C54.5864 41.9414 54.645 41.9531 56.3091 41.9531H58.0083V42.9375V43.9219L56.2974 43.9688C54.5864 44.0039 54.5864 44.0039 54.3052 44.332C53.9419 44.7539 53.9419 45.2461 54.3052 45.668C54.5864 45.9961 54.5864 45.9961 56.2974 46.0313L58.0083 46.0781V47.0625V48.0469H56.3091C54.645 48.0469 54.5864 48.0586 54.3169 48.3398C53.9419 48.7031 53.9419 49.2188 54.3052 49.6523C54.5864 49.9805 54.5864 49.9805 56.2974 50.0156L58.0083 50.0508V51.0469V52.0313H56.3091C54.645 52.0313 54.5864 52.043 54.3169 52.3242C53.8833 52.7461 53.9185 53.332 54.3872 53.7188C54.7388 54.0117 54.7974 54.0234 56.3208 54.0234H57.9028L57.8325 54.2813C57.4692 55.5234 56.4849 56.7773 55.4536 57.3398C54.2349 58.0078 54.1646 58.0078 45.9966 58.0078C38.0044 58.0078 37.8052 57.9961 36.6919 57.4336C35.6021 56.8711 34.5122 55.5117 34.1606 54.293L34.0903 54.0234H35.6255C37.1724 54.0234 37.5239 53.9531 37.8169 53.5664C38.063 53.25 37.9927 52.6406 37.6763 52.3242C37.4067 52.043 37.3481 52.0313 35.6841 52.0313H33.9849V51.0469V50.0508L35.6724 50.0156C37.2778 49.9805 37.3833 49.9688 37.6646 49.6992C38.0747 49.3125 38.0747 48.7266 37.6763 48.3398C37.4067 48.0586 37.3481 48.0469 35.6841 48.0469H33.9849V47.0625V46.0781L35.6958 46.0313C37.4067 45.9961 37.4067 45.9961 37.688 45.668C37.8403 45.4805 37.9692 45.1875 37.9692 45C37.9692 44.8125 37.8403 44.5195 37.688 44.332C37.4067 44.0039 37.4067 44.0039 35.6958 43.9688L33.9849 43.9219V42.9375V41.9531H35.6841C37.3481 41.9531 37.4067 41.9414 37.6763 41.6602C38.0747 41.2734 38.0747 40.6875 37.6646 40.3008C37.3833 40.0313 37.2778 40.0195 35.6724 39.9844L33.9849 39.9492V38.9531V37.9688H45.9966H58.0083V38.9531Z" fill="#263238"/>
<path d="M5.56612 4.125C4.95675 4.45312 4.83956 5.20312 5.33175 5.68359C5.57784 5.94141 5.71847 5.97656 6.50362 5.97656C7.28878 5.97656 7.42941 5.94141 7.6755 5.68359C8.16769 5.20312 8.03878 4.45312 7.41769 4.125C7.10128 3.94922 5.88253 3.94922 5.56612 4.125Z" fill="#263238"/>
<path d="M10.5482 4.13672C9.91543 4.45312 9.8334 5.29688 10.3959 5.74219C10.6303 5.92969 10.8764 5.97656 11.5326 5.97656C12.3881 5.96484 12.6342 5.87109 12.8686 5.42578C13.0912 5.01562 13.0326 4.6875 12.6693 4.32422C12.3646 4.01953 12.2475 3.98438 11.5795 3.98438C11.1693 3.98438 10.7123 4.05469 10.5482 4.13672Z" fill="#263238"/>
<path d="M15.3396 4.32422C14.9646 4.71094 14.9177 5.00391 15.1756 5.49609C15.3865 5.91797 15.5506 5.97656 16.5115 5.97656C17.7068 5.97656 18.2224 5.46094 17.8709 4.61719C17.6716 4.125 17.3318 3.98438 16.3943 3.98438C15.7615 3.98438 15.6443 4.01953 15.3396 4.32422Z" fill="#263238"/>
<path d="M20.5661 4.125C19.9567 4.45312 19.8396 5.20312 20.3317 5.68359L20.613 5.97656H34.5114H48.4099L48.6911 5.68359C49.1013 5.28516 49.0779 4.76953 48.6443 4.32422L48.3044 3.98438H34.5466C24.82 3.99609 20.7302 4.03125 20.5661 4.125Z" fill="#FB5D1E"/>
<path d="M7.60547 14.0508C7.00781 14.168 6.45703 14.6133 6.19922 15.1641C6 15.6094 5.97656 16.0078 5.97656 19.9805C5.97656 23.9414 6 24.3516 6.19922 24.7852C6.45703 25.3477 6.71484 25.5938 7.30078 25.8398C7.65234 25.9922 8.42578 26.0156 12.0469 26.0156C16.2891 26.0156 16.3711 26.0156 16.875 25.7461C17.8828 25.2422 18.0938 24.5625 18.0234 22.0664C17.9883 20.7539 17.9648 20.625 17.707 20.3438C17.332 19.9453 16.6758 19.9219 16.3125 20.3086C16.0781 20.5547 16.0547 20.7188 16.0313 22.2656L15.9961 23.9648L11.9883 24L7.96875 24.0234V20.0391V16.0547H9.9961C12.2461 16.0547 12.7266 15.9375 12.9375 15.3164C13.1016 14.8477 12.9023 14.3906 12.4219 14.1562C12.0703 13.9805 11.6953 13.9453 10.0195 13.957C8.92969 13.9688 7.83984 14.0039 7.60547 14.0508Z" fill="#FB5D1E"/>
<path d="M16.6406 14.0977C16.4062 14.2149 13.6055 17.4375 12.2461 19.1602L11.9648 19.5L11.2031 18.7735C10.5586 18.1524 10.3828 18.0469 10.0195 18.0469C9.46875 18.0469 9.02344 18.4688 9.02344 18.9961C9.02344 19.3125 9.21094 19.5586 10.2305 20.5899C10.8867 21.2696 11.543 21.8672 11.6953 21.9258C12.2812 22.1485 12.5039 21.961 15.1875 18.7383C16.6406 17.0039 17.8711 15.4571 17.9297 15.293C18.1055 14.8477 17.8594 14.2969 17.3906 14.1094C16.9219 13.9102 17.0039 13.9102 16.6406 14.0977Z" fill="#FB5D1E"/>
<path d="M21.3164 15.3398C21.1172 15.5508 20.9766 15.8086 20.9766 15.9961C20.9766 16.1836 21.1172 16.4414 21.3164 16.6523L21.6563 16.9922H25.957C28.8047 16.9922 30.3281 16.9453 30.4805 16.8633C30.8438 16.6758 31.0547 16.0898 30.9141 15.6797C30.668 15 30.6914 15 25.9805 15H21.6563L21.3164 15.3398Z" fill="#FB5D1E"/>
<path d="M21.3278 20.2734C20.8357 20.7656 20.9528 21.5742 21.5622 21.8789C21.7849 21.9961 23.3903 22.0312 28.5583 22.0312H35.2497L35.613 21.7266C36.0818 21.3398 36.1169 20.7539 35.6833 20.332L35.4021 20.0391H28.4763C21.7497 20.0391 21.5505 20.0508 21.3278 20.2734Z" fill="#FB5D1E"/>
<path d="M7.04287 31.2539C6.83193 31.3593 6.51552 31.6523 6.33974 31.9101L6.03505 32.3906L5.9999 36.8203C5.96474 40.9804 5.98818 41.2851 6.1874 41.7656C6.3163 42.0468 6.62099 42.4218 6.86708 42.6093L7.30068 42.9492L11.7655 42.9843C16.6991 43.0195 16.9218 42.996 17.5077 42.2929C17.9647 41.7538 18.0702 41.1562 18.0233 39.3163C17.9882 37.7226 17.9765 37.6171 17.7069 37.3359C17.3554 36.9609 16.7929 36.9374 16.371 37.2773C16.0663 37.5117 16.0546 37.5351 16.0312 39.2343L15.996 40.957L11.9882 40.9921L7.96865 41.0156V37.0312V33.0468H9.96084C12.1171 33.0468 12.6327 32.9414 12.8905 32.4609C13.078 32.1093 12.9374 31.4531 12.621 31.2304C12.2343 30.9609 7.60537 30.9726 7.04287 31.2539Z" fill="#263238"/>
<path d="M16.1602 31.4884C15.9258 31.7344 14.9297 32.9063 13.9453 34.1016C12.9609 35.297 12.1055 36.3165 12.0586 36.3751C12 36.4454 11.6367 36.1876 11.2031 35.7657C10.5586 35.1446 10.3828 35.0391 10.0195 35.0391C9.46875 35.0391 9.02344 35.461 9.02344 35.9884C9.02344 36.3048 9.21094 36.5509 10.2773 37.6407C11.543 38.918 11.8359 39.1173 12.3047 38.9649C12.5859 38.8712 17.7539 32.7305 17.9297 32.2852C18.1523 31.711 17.6602 31.0548 16.9922 31.0548C16.6523 31.0548 16.4883 31.1485 16.1602 31.4884Z" fill="#FB5D1E"/>
<path d="M21.3164 32.332C21.1172 32.543 20.9766 32.8008 20.9766 32.9883C20.9766 33.1758 21.1172 33.4336 21.3164 33.6445L21.6563 33.9844H26.0039C30.3399 33.9844 30.3399 33.9844 30.6328 33.7148C31.0781 33.3164 31.0899 32.7188 30.6445 32.2852L30.3633 31.9922H26.0156H21.6563L21.3164 32.332Z" fill="#263238"/>
<path d="M21.3516 37.2656C21.0117 37.582 20.918 38.0039 21.1172 38.3906C21.3984 39 21.5508 39.0234 25.582 39.0234H29.3203L29.6719 38.6719C29.9766 38.3555 30.0235 38.25 29.9649 37.875C29.8242 37.0195 29.8594 37.0312 25.5 37.0312C21.75 37.0312 21.5977 37.043 21.3516 37.2656Z" fill="#263238"/>
<path d="M44.9065 43.207C44.2151 43.4531 43.4299 44.2734 43.1838 45.0117C42.7151 46.418 43.3948 48.0937 44.6604 48.6562L45.0002 48.8086V50.0625C45.0002 51.2109 45.0237 51.3398 45.2815 51.6328C45.4924 51.8789 45.6565 51.9609 45.9963 51.9609C46.3362 51.9609 46.5002 51.8789 46.7112 51.6328C46.969 51.3398 46.9924 51.2109 46.9924 50.0625V48.8086L47.3557 48.6445C47.9182 48.3984 48.5862 47.6367 48.7971 47.0273C49.6291 44.5898 47.344 42.3398 44.9065 43.207ZM46.4534 45.1289C46.8049 45.293 47.051 45.832 46.9455 46.2187C46.6643 47.3672 45.0002 47.1094 45.0002 45.9258C45.0002 45.6211 45.6213 45 45.926 45C46.0549 45 46.2893 45.0586 46.4534 45.1289Z" fill="#FB5D1E"/>
</svg>
